<svg viewBox="0 0 16 16" xmlns="http://www.w3.org/2000/svg"><path d="M6.753 1.158C2.235 1.96-.271 6.943 1.759 11.09c2.536 5.185 10.047 5.142 12.512-.07C16.69 5.9 12.323.17 6.753 1.158m.587 2.335c2.576.518 5.233 1.323 5.327 1.616.259.808.255 4.849-.005 5.34-.066.125-1.209-.012-2.08-.247l-.35-.094-.002-.437c-.005-1.309-.138-2.547-.29-2.7-.176-.176-1.312-.545-3.052-.99l-1.107-.284-.014-.267c-.033-.6.117-1.95.232-2.093.063-.079.315-.05 1.34.157M4.03 5.39c.5.066 1.083.178 1.492.289l.178.048.03.984c.058 1.844.117 2.13.474 2.29.449.2 2.084.679 3.622 1.06l.338.085-.01.653c-.01.735-.082 1.393-.174 1.617l-.062.15-.26-.03c-.977-.113-4.176-.896-5.568-1.362-.611-.205-.76-.284-.812-.435-.23-.66-.229-4.906.002-5.337.053-.1.08-.1.75-.012" fill-rule="evenodd" fill="#ef5350"/></svg>