<svg viewBox="0 0 24 24" xmlns="http://www.w3.org/2000/svg"><path d="M12 1.594C6.253 1.594 1.594 6.253 1.594 12c0 5.747 4.659 10.406 10.406 10.406 5.748 0 10.406-4.66 10.406-10.406 0-.972-.133-1.913-.382-2.806h-.002a.52.52 0 00-.025-.093c-.003-.01-.014-.031-.014-.031a.52.52 0 00-.47-.302.52.52 0 00-.522.52.52.52 0 00.029.166l-.002.002A9.403 9.403 0 0121.365 12a9.305 9.305 0 01-2.742 6.623A9.304 9.304 0 0112 21.365a9.304 9.304 0 01-6.624-2.742A9.306 9.306 0 012.633 12c0-2.502.974-4.855 2.743-6.624A9.304 9.304 0 0112 2.635c2.234 0 4.347.776 6.034 2.202a1.271 1.271 0 00-.088.466 1.272 1.272 0 10.836-1.195A10.367 10.367 0 0012 1.594zm-1.315 4.851l-3.833 9.949h2.403l.626-1.685h3.622l-.656-1.866h-2.385l1.552-4.279 2.759 7.83h2.4l-3.833-9.95z" fill="#7e57c2"/></svg>