<svg viewBox="0 0 24 24" xmlns="http://www.w3.org/2000/svg"><path d="M13.158 2.24a.964.964 0 00-.82.446.974.974 0 00-.11.195l-3.632 8.78H5.092a.962.962 0 00-.964.965c0 .534.43.964.964.964h6.882c.534 0 .964-.43.964-.964a.962.962 0 00-.965-.965h-1.29l2.461-5.948 6.375 15.406a.962.962 0 001.26.522.962.962 0 00.522-1.26L14.04 2.837a.962.962 0 00-.883-.597zM3.589 15.298a.962.962 0 00-.964.964c0 .534.43.965.964.965h2.704l-1.324 3.2a.962.962 0 00.522 1.259.962.962 0 001.26-.522l1.63-3.938h2.09c.533 0 .964-.43.964-.964a.962.962 0 00-.965-.964z" fill="#f44336" paint-order="fill markers stroke"/></svg>