<svg viewBox="0 0 40 40" xmlns="http://www.w3.org/2000/svg"><path d="M4.974 27.514h2.254v5.259h5.259v2.254H4.974z" fill="#64b5f6" stroke-width=".796"/><path d="M4.974 13.74v6.887l4.382 4.513 1.879-2.008 5.634 5.635-1.878 1.878 4.383 4.382h6.888c.69 0 1.251-.56 1.251-1.253V23.757l-11.27-11.27H6.228c-.692 0-1.253.56-1.253 1.253z" fill="#1565c0" stroke-width=".796"/><path d="M10.396 23.05a1.253 1.253 0 01-.156-1.581L20.508 6.088a2.503 2.503 0 012.083-1.114h11.182c.692 0 1.253.56 1.253 1.252v11.182c0 .837-.418 1.619-1.114 2.083L18.53 29.76a1.253 1.253 0 01-1.581-.156z" fill="#1e88e5" stroke-width=".796"/><path d="M11.22 26.929l9.56-9.56 1.851 1.85-9.56 9.561z" fill="#0a44c2"/><path d="M11.22 26.929l9.56-9.56 1.85 1.85-9.56 9.56z" fill="#64b5f6" stroke-width=".796"/><path d="M14.6 27.252l-1.852-1.851 8.032-8.032 1.852 1.851z" fill="#42a5f5" stroke-width=".796"/><path d="M27.513 16.244a3.757 3.757 0 100-7.514 3.757 3.757 0 000 7.514z" fill="#0a44c2"/><path d="M27.514 16.244a3.757 3.757 0 10-.001-7.514 3.757 3.757 0 000 7.514z" fill="#90caf9" stroke-width=".796"/></svg>