<svg class="header__svg-logo" width="300" height="300" preserveAspectRatio="xMinYMin meet" viewBox="0 0 681.571 842.229" xmlns="http://www.w3.org/2000/svg"><defs><linearGradient id="logo-gradient" x1="64.01" x2="32.99" y1="65.26" y2="89.48" gradientUnits="userSpaceOnUse"><stop stop-color="#1565c0" offset=".18"/><stop stop-color="#1e88e5" offset="1"/></linearGradient><style></style></defs><g class="header__svg-logo__icon"><path d="M104.682 116.864a21.676 21.676 0 00-21.676 25.144l92.016 558.6a29.48 29.48 0 0028.83 24.603H645.29a21.676 21.676 0 0021.676-18.208L759.2 142.225a21.676 21.676 0 00-21.676-25.144zm387.465 403.722H351.251L313.1 321.38h213.186z" fill="#1e88e5"/><path d="M59.67 60.12H40.9L37.75 78.5h-13L9.4 96.73a2.71 2.71 0 001.75.66h40.74a2 2 0 002-1.68z" fill="url(#logo-gradient)" transform="matrix(10.83818 0 0 10.83818 83.006 -330.211)"/></g></svg>