<svg viewBox="0 0 24 24" xmlns="http://www.w3.org/2000/svg"><path d="M21.085 13.343a4.348 4.348 0 01-1.812 3.788l.738 1.429c.22.431.25.94.058 1.39-.183.45-.557.806-1.017.959l-.758.24a1.618 1.618 0 01-1.784-.527l-2.032-2.398a5.094 5.094 0 01-2.34-1.055 4.99 4.99 0 01-1.438.22 4.181 4.181 0 01-2.398-.757 5.023 5.023 0 01-1.553.211 5.617 5.617 0 01-2.206-.431 3.936 3.936 0 01-2.33-3.462c-.077-.69.038-1.39.336-2.024a3.313 3.313 0 01-.068-2.234 4.294 4.294 0 011.86-2.148c.557-1.62 2.12-2.704 3.837-2.589a4.404 4.404 0 015.59-.355 4.94 4.94 0 011.247-.163A4.156 4.156 0 0118.37 5.01a4.608 4.608 0 013.433 4.286 5.046 5.046 0 01-.825 3.002c.067.345.106.69.106 1.045m-4.795-1.352c.547.067.978.48.978 1.026a.959.959 0 01-.959.959h-.604a4.966 4.966 0 01-1.553 2.196c.24.086.489.134.738.201 4.92-.067 4.344-3.068 4.344-3.116a2.486 2.486 0 00-2.58-2.388.959.959 0 01-.958-.959.959.959 0 01.958-.959c1.18.029 2.312.47 3.194 1.247.048-.278.076-.566.076-.854-.057-1.189-.594-2.224-2.752-2.426-1.198-2.838-4.22-1.266-4.22-.383-.028.22.202.69.24.719a.959.959 0 01.96.959.962.962 0 01-.96.959 2.245 2.245 0 01-1.37-.537c-.461.297-.988.48-1.535.537-.547.048-.997-.336-1.026-.863a.928.928 0 01.844-1.055c.153-.02.901-.134.901-.739 0-.632.24-1.237.652-1.716-.882-.24-1.831.077-2.79 1.237-1.765-.278-2.484-.038-3.011 1.832-.911.45-1.39.767-1.602 1.726a5.646 5.646 0 013.088.24.97.97 0 01.566 1.236.962.962 0 01-1.237.566 2.927 2.927 0 00-2.206-.057c-.307.259-.307.796-.307 1.218 0 .71.355 1.37.96 1.754a3.495 3.495 0 001.64.384 5.786 5.786 0 01-.375-.777.995.995 0 011.88-.652c.383 1.093 1.361 1.841 2.512 1.966a3.591 3.591 0 003.06-2.043c.22-1.323 1.284-1.438 2.454-1.438m1.918 7.163l-.595-1.246-.68.153.958 1.199.317-.106m-4.46-8.256a.958.958 0 00-.872-.988 2.564 2.564 0 00-1.85.643 2.852 2.852 0 00-.806 2.1.959.959 0 00.959.959.95.95 0 00.959-.96c0-.258.067-.517.22-.728a.635.635 0 01.413-.144c.527.029.978-.364.978-.882z" fill="#ff4081" stroke-width=".959"/></svg>