<svg viewBox="0 0 24 24" xmlns="http://www.w3.org/2000/svg"><g fill="#0277bd"><path d="M7.488 2.94h-1.51v4.272L7.82 9.054H5.61L3.197 6.64V2.939H1.595v4.383l3.278 3.279h4.42l1.583 1.583H6.641l3.572 3.683-5.23 5.194h2.063l5.23-5.267-1.989-1.99h10.571v.664l-4.567 2.725-3.83 3.868h2.173l2.615-2.652 5.156-3.094v-3.13h-4.862l-1.657-1.658 1.878-1.879V4.45H16.2v3.499l-1.529 1.51-1.362-1.427V4.449h-1.474v4.273l3.445 3.462h-2.102L7.488 6.55v-3.61"/><path d="M15.48 14.762h-2.062l.994 1.068 1.068-1.068"/></g></svg>