<svg viewBox="0 0 256 256" xmlns="http://www.w3.org/2000/svg"><path d="M123.456 129.975a507.171 507.171 0 00-3.54 7.845c-4.405 9.982-9.284 22.127-11.066 29.908-.64 2.772-1.037 6.206-1.03 10.014 0 1.506.081 3.089.21 4.701a58.107 58.107 0 0019.98 3.56 58.209 58.209 0 0018.29-2.981c-1.352-1.236-2.642-2.554-3.816-4.038-7.796-9.941-12.146-24.511-19.028-49.009M94.672 80.586c-14.89 10.493-24.633 27.8-24.67 47.413.037 19.32 9.487 36.404 24.002 46.941 3.56-14.83 12.485-28.41 25.868-55.63-.794-2.183-1.7-4.573-2.714-7.084-3.707-9.3-9.058-20.1-13.834-24.992-2.434-2.555-5.389-4.763-8.652-6.648" fill="#64dd17"/><path d="M178.532 194.535c-7.682-.963-14.023-2.125-19.57-4.081a69.407 69.407 0 01-30.958 7.248c-38.49 0-69.693-31.197-69.698-69.7 0-20.89 9.204-39.618 23.764-52.391-3.894-.94-7.956-1.49-12.104-1.482-20.45.192-42.037 11.51-51.025 42.075-.84 4.449-.64 7.813-.64 11.8 0 60.59 49.12 109.715 109.705 109.715 37.105 0 69.882-18.437 89.732-46.634-10.736 2.676-21.06 3.955-29.902 3.983-3.314 0-6.425-.178-9.305-.53" fill="#7cb342"/><path d="M157.922 173.27c.678.337 2.213.885 4.35 1.49 14.375-10.552 23.717-27.551 23.754-46.763h-.005c-.054-32.03-25.974-57.946-58.011-58.01a58.15 58.15 0 00-18.213 2.962c11.779 13.426 17.443 32.612 22.922 53.6l.01.025c.01.017 1.752 5.828 4.743 13.538 2.97 7.7 7.203 17.23 11.818 24.177 3.03 4.655 6.363 8 8.632 8.982" fill="#29b6f6"/><path d="M128.009 18.289c-36.746 0-69.25 18.09-89.16 45.826 10.362-6.49 20.941-8.83 30.174-8.746 12.753.037 22.779 3.99 27.59 6.696 1.161.67 2.264 1.39 3.344 2.13a69.41 69.41 0 0128.05-5.894c38.495.005 69.702 31.203 69.708 69.698h-.006c0 19.41-7.938 36.958-20.735 49.595 3.14.352 6.49.57 9.912.554 12.15.005 25.283-2.676 35.128-10.957 6.42-5.408 11.799-13.326 14.782-25.198.583-4.586.919-9.248.919-13.992 0-60.587-49.116-109.714-109.705-109.714" fill="#1e88e5"/></svg>