<svg width="800" height="800" data-name="Layer 1" viewBox="0 0 800 800" xmlns="http://www.w3.org/2000/svg"><defs><linearGradient id="linear-gradient" x1="541.95" x2="423.91" y1="120.67" y2="946.97" gradientTransform="translate(978.34 -208.81)" gradientUnits="userSpaceOnUse"><stop stop-color="#00b3e3" offset="0"/><stop stop-color="#03a9f4" offset=".13"/><stop stop-color="#03a9f4" stop-opacity="0" offset="1"/></linearGradient><linearGradient id="linear-gradient-2" x1="541.95" x2="423.91" y1="120.67" y2="946.97" gradientTransform="translate(-220.73 -118.03)" gradientUnits="userSpaceOnUse"><stop stop-color="#3b5cad" stop-opacity="0" offset="0"/><stop stop-color="#3b5cad" stop-opacity="0" offset=".13"/><stop stop-color="#3b5cad" offset="1"/></linearGradient><style>.cls-2{fill:#383a35}</style></defs><path d="M478.325 330.014c22.208-18.083 35.945-43.704 35.69-72.077-.465-54.037-51.52-97.576-114.038-97.576s-113.568 43.535-114.049 97.576c-.246 28.365 13.483 53.993 35.691 72.077 27.476 22.374 49.991 67.625 51.311 117.039 1.469 54.837-2.278 118.303-4.582 150.586-29.376 4.178-50.01 13.984-50.01 25.427 0 15.225 36.545 32.78 81.62 32.78s81.619-17.59 81.619-32.78c0-11.434-20.634-21.25-50.01-25.427-2.304-32.295-6.042-95.756-4.582-150.586 1.346-49.411 23.86-94.662 51.338-117.04z" fill="#0288d1" stroke-width=".932"/><path class="cls-2" d="M616.458 649.083a69.393 69.393 0 0113.518-3.94 85.611 85.611 0 0115.629-1.89s-.255-1.76-.598-4.399c-.158-2.585-1.381-6.015-2.55-9.42a775.819 775.819 0 00-1.76-4.88c-.695-1.548-1.574-2.964-2.207-4.187l-2.19-3.975a138.785 138.785 0 01-16.13-3.659 126.341 126.341 0 01-14.557-5.013c-8.25-3.624-16.006-7.687-20.096-12.226-4.943-4.318-5.857-8.628-5.7-12.541a10.73 10.73 0 012.64-5.515 17.23 17.23 0 015.857-4.565s-1.988-1.099-4.881-2.744c-1.478-.791-3.088-1.759-4.978-2.709-1.891-.95-4.064-1.952-6.157-2.928-4.099-1.953-8.188-3.905-11.627-5.198l-5.453-2.208a107.539 107.539 0 01-12.666.88c-4.538.096-9.164 0-13.667-.378-8.857-.757-17.862-1.988-25.646-4.284a63.896 63.896 0 01-10.458-3.623 48.479 48.479 0 01-7.819-4.125c-4.09-2.99-6.895-6.016-6.869-9.077l-6.148-1.002c-3.843-.599-12.03-1.698-17.23-2.393-.096.88-.659 1.698-.879 3.149l-1.319 6.367c-2.709 12.727 4.662 25.647 17.168 29.27 30.625 8.919 53.774 23.598 60.458 41.619 13.518 36.447-43.255 72.12-129.577 72.12S257.498 649.9 270.95 613.454c6.526-17.59 28.76-31.979 58.285-40.959a26.447 26.447 0 0018.021-30.782l-1.811-8.655c-3.43.414-7.432.88-11.53 1.416-5.137.563-10.019 1.478-13.765 2.076-3.747.598-6.27 1.038-6.27 1.038.254 2.964-1.857 6.297-5.894 9.164a51.434 51.434 0 01-7.308 4.319 88.646 88.646 0 01-10.08 3.782 100.69 100.69 0 01-12.313 2.832 121.445 121.445 0 01-13.263 1.759c-9.165.72-18.365.88-26.72-.123l-1.512.598c-.88.413-2.393.94-3.879 1.67-3.052 1.452-7.186 3.43-11.337 5.418s-7.748 4.257-10.712 5.893l-3.518 1.988c-.783.536-1.232.818-1.232.818 5.761 2.638 8.98 6.297 9.604 10.14 1.451 4.064-.536 8.285-4.283 12.886a55.014 55.014 0 01-8.1 6.675 72.911 72.911 0 01-11.592 6.157 125.567 125.567 0 01-30.651 9.48 19.525 19.525 0 00-1.76 4.1c-.879 2.488-2.049 5.857-3.245 9.296-.501 3.403-.976 6.895-1.354 9.577a15.189 15.189 0 00-.255 4.477c11.935.123 22.56 2.146 30.493 5.321 9.234 3.052 14.81 7.625 19.12 13.193 3.404 6.015 4.759 12.313 1.76 19.595-2.111 7.089-7.916 14.996-17.362 22.181l1.451 1.258c1.038.757 2.55 1.83 4.398 3.122 3.747 2.586 8.47 6.236 14.019 9.543 5.857 3.21 11.811 6.456 16.315 8.945 2.234 1.257 4.503 2.049 5.92 2.709 1.415.66 2.33 1.01 2.33 1.01 13.325-5.698 27.626-8.627 41.935-10.14a122.813 122.813 0 0120.888-.501c6.834.343 13.8.88 20.317 2.427 6.455 1.698 12.761 3.307 18.276 5.77a105.058 105.058 0 0115.313 8.663c9.42 6.43 16.667 15.498 19.78 25.049l12.128.475c7.31.193 17.045.88 26.746.343 9.675-.317 19.437-.475 26.65-.942 7.123-.694 11.873-1.134 11.873-1.134a36.71 36.71 0 016.236-13.923 44.697 44.697 0 015.075-5.919 59.305 59.305 0 0120.378-14.46 84.187 84.187 0 0117.52-6.297c6.676-1.32 12.947-2.638 19.754-3.122 6.808-.484 14.02-.22 20.792.061A147.2 147.2 0 01579 730.728l7.37-4.099c4.222-2.524 10.3-5.515 14.953-9.235 4.758-3.518 9.762-6.869 12.788-9.674s4.88-4.6 4.88-4.6c-9.92-6.834-15.628-14.178-19.278-21.425a23.5 23.5 0 01-2.269-10.018 14.389 14.389 0 012.27-9.165c2.585-5.796 9.199-10.079 16.71-13.483M324.71 469.95s12.823-48.567-42.868-111.22l-1.847-1.934a154.313 154.313 0 01-36.385-99.388c0-85.137 69.34-154.398 154.577-154.398h3.553c85.233 0 154.587 69.27 154.587 154.398a154.285 154.285 0 01-36.367 99.322c-.273.317-.88.967-1.856 1.917-49.446 49.508-42.894 111.256-42.894 111.256 90.282-31.126 151.275-116.02 151.794-211.247.686-119.02-95.416-220.503-214.181-226.201a92.455 92.455 0 00-4.398-.097c-1.759 0-8.479.132-8.443.132-.194 0-6.632-.132-8.417-.132-1.469 0-2.938 0-4.398.097-118.794 5.7-214.89 107.18-214.238 226.238.501 95.237 61.504 180.125 151.785 211.248z" fill="#78909c" stroke-width=".932"/><path d="M362.32 307.75c23.54-19.167 38.102-46.325 37.832-76.4-.494-57.279-54.612-103.43-120.88-103.43s-120.38 46.147-120.89 103.43c-.261 30.066 14.292 57.232 37.832 76.4 29.124 23.717 52.99 71.682 54.389 124.06 1.557 58.127-2.415 125.4-4.857 159.62-31.138 4.428-53.01 14.823-53.01 26.952 0 16.138 38.737 34.746 86.516 34.746s86.515-18.645 86.515-34.746c0-12.12-21.871-22.524-53.01-26.952-2.442-34.233-6.404-101.5-4.856-159.62 1.426-52.375 25.292-100.34 54.417-124.06z" fill-opacity="0" stroke-width=".932" fill="url(#linear-gradient-2)" transform="matrix(.9434 0 0 .9434 136.51 39.68)"/></svg>