<svg viewBox="0 0 24 24" xmlns="http://www.w3.org/2000/svg" clip-rule="evenodd" fill-rule="evenodd" stroke-linejoin="round" stroke-miterlimit="2"><g fill="#0288d1"><path d="M13.506 1.71a10.374 10.374 0 00-3.012 0l-.66 1.72c-.83.21-1.627.54-2.364.979l-1.682-.75c-.809.602-1.527 1.32-2.129 2.13l.75 1.681a8.836 8.836 0 00-.98 2.365l-1.72.659a10.374 10.374 0 000 3.012l1.72.66c.21.83.54 1.627.98 2.364l-.75 1.682c.602.809 1.32 1.527 2.13 2.129l1.681-.75c.737.44 1.534.77 2.365.98l.659 1.72c.998.146 2.014.146 3.012 0l.66-1.72a8.836 8.836 0 002.364-.98l1.682.75c.809-.602 1.527-1.32 2.129-2.13l-.75-1.681c.44-.737.77-1.534.98-2.365l1.72-.659c.146-.998.146-2.014 0-3.012l-1.72-.66a8.836 8.836 0 00-.98-2.364l.75-1.682a10.376 10.376 0 00-2.13-2.129l-1.681.75a8.836 8.836 0 00-2.365-.98zM12 5.336c3.678 0 6.665 2.986 6.665 6.664S15.678 18.665 12 18.665 5.336 15.678 5.336 12 8.322 5.336 12 5.336z"/><path d="M14.676 14.671A3.767 3.767 0 0112 15.781c-2.088 0-3.782-1.693-3.782-3.781a3.783 3.783 0 016.458-2.67l-1.337 1.335a1.892 1.892 0 100 2.67z"/></g></svg>