<svg width="300" height="300" version="1.0" viewBox="0 0 300 702.632" xmlns="http://www.w3.org/2000/svg"><g transform="matrix(.93181 0 0 .97555 101.233 596.413)" fill="#f44336"><ellipse cx="232.63" cy="-345.75" rx="110.59" ry="103.55" stroke-width="9.314"/><ellipse cx="384.64" cy="-459.86" rx="39.614" ry="37.967" stroke-width="3.376"/><path d="M-216.87-484.86c-7.976 1.11-14.226 8.274-14.252 16.944l.504 442.73c0 6.705 1.611 20.532 18.373 20.532l150.67-.676c43.068-.087 71.913-.916 89.092-3.36h.407c16.44-2.57 33.854-7.305 52.79-14.223 32.916-11.582 62.104-28.693 87.202-51.55 24.573-22.14 43.614-48.354 56.998-77.843 13.383-29.488 20.13-60.667 20.08-92.991-.071-44.993-12.167-87.123-36.434-125.03-24.27-37.904-57.397-66.932-98.165-86.156-41.445-19.773-95.485-28.783-162.53-28.648l-162.7.267c-.7.004-1.363-.09-2.038.003zm87.569 91.1l70.135-.115c32.777-.066 56.096 1.054 69.323 3.098 13.409 2.073 28.094 6.448 43.646 13.208 15.414 6.61 28.851 14.704 40.397 24.78 31.765 27.791 46.739 60.683 46.807 104.23.07 44.59-14.401 79.323-45.342 108.45-9.518 8.84-20.102 16.336-31.78 22.541-11.037 5.785-25.434 10.77-43.613 15.065-17.145 3.86-43.175 6.056-77.06 6.124l-72.174.12z" stroke-width="10.44"/></g></svg>