<svg width="300" height="300" overflow="visible" version="1.0" viewBox="0 0 300 300" xmlns="http://www.w3.org/2000/svg"><g fill="#43a047" stroke-width="1.715"><path d="M141.11 25.001h40.878v189.22c-20.97 3.98-36.366 5.573-53.089 5.573-49.905-.001-75.918-22.56-75.918-65.83 0-41.676 27.608-68.749 70.342-68.749 6.636 0 11.68.53 17.785 2.122zm0 95.245c-4.778-1.591-8.76-2.122-13.803-2.122-20.705 0-32.65 12.742-32.65 35.038 0 21.768 11.415 33.712 32.384 33.712 4.51 0 8.229-.265 14.068-1.06z"/><path d="M247.022 88.13v94.763c0 32.65-2.389 48.31-9.555 61.85-6.637 13.009-15.398 21.235-33.447 30.262l-37.96-18.05c18.05-8.494 26.81-15.925 32.384-27.343 5.841-11.679 7.7-25.216 7.7-60.786V88.132zm-40.877-62.91h40.877v41.94h-40.877z"/></g></svg>