<svg viewBox="0 0 24 24" xmlns="http://www.w3.org/2000/svg"><defs><linearGradient id="a" x1="2.373" x2="21.86" y1="12.027" y2="12.027" gradientTransform="translate(-.117 -24.027)" gradientUnits="userSpaceOnUse"><stop stop-color="#d92f3c" offset="0"/><stop stop-color="#791223" offset="1"/></linearGradient></defs><rect transform="rotate(90)" x="2.256" y="-21.744" width="19.487" height="19.487" ry="0" fill="url(#a)"/><path d="M16.56 6L16.547 6a6.43 6.43 0 00-1.182.192 5.062 5.062 0 00-1.494.718c-.428.323-.817.72-1.17 1.191-.34.48-.682 1.032-1.022 1.66-.12.228-.233.425-.35.637v.001h-.004l-1.34 2.394-.005-.001c-.238.442-.461.847-.665 1.197a4.358 4.358 0 01-.716.94 2.79 2.79 0 01-.907.594c-.072.027-.161.042-.241.063h-.99V18h.99v-.002a6.427 6.427 0 001.184-.192 5.062 5.062 0 001.494-.718c.428-.323.819-.72 1.171-1.191.34-.48.681-1.032 1.021-1.66.121-.228.236-.425.353-.637l.006.002.004-.005.036-.066h2.53v.002h1.125v-2.408h-.331v-.001h-1.979c.22-.407.43-.789.62-1.115.215-.37.452-.682.717-.94a2.79 2.79 0 01.906-.594c.07-.027.16-.041.239-.061h.992v-.003h-.001V6h-.978v-.002z" fill="#fff"/></svg>