<svg clip-rule="evenodd" stroke-linejoin="round" stroke-miterlimit="1.414" viewBox="0 0 24 24" xmlns="http://www.w3.org/2000/svg"><path d="M19 20H4a2 2 0 01-2-2V6c0-1.11.89-2 2-2h6l2 2h7c1.097 0 2 .903 2 2H4v10l2.14-8h17.07l-2.28 8.5c-.23.87-1.01 1.5-1.93 1.5z" fill="#4caf50"/><g fill="#c8e6c9" fill-rule="evenodd"><path d="M15.597 21.678a.637.637 0 01-.147-.018.739.739 0 01-.513-.857l1.915-10.2a.734.734 0 01.314-.482.63.63 0 01.494-.087.74.74 0 01.514.858l-1.92 10.2a.73.73 0 01-.312.481.632.632 0 01-.345.105zM19.436 20.233h-.048a.658.658 0 01-.472-.267.78.78 0 01.07-1.003l3.292-3.218L19 12.75a.78.78 0 01-.1-1 .663.663 0 01.468-.283.636.636 0 01.501.167l3.866 3.534a.78.78 0 01.102 1 .743.743 0 01-.1.116l-3.85 3.763a.646.646 0 01-.451.187zM13.672 20.235a.648.648 0 01-.452-.189l-3.853-3.765a.775.775 0 01.006-1.108l3.867-3.533a.623.623 0 01.495-.169c.19.022.361.125.47.283a.78.78 0 01-.1 1.002l-3.276 2.993 3.292 3.216c.267.27.297.699.071 1.003a.656.656 0 01-.473.267z" fill-rule="nonzero"/></g></svg>