<svg clip-rule="evenodd" fill-rule="evenodd" stroke-linejoin="round" stroke-miterlimit="1.414" viewBox="0 0 24 24" xmlns="http://www.w3.org/2000/svg"><path d="M10 4H4c-1.11 0-2 .89-2 2v12c0 1.097.903 2 2 2h16c1.097 0 2-.903 2-2V8a2 2 0 00-2-2h-8l-2-2z" fill="#f06292" fill-rule="nonzero"/><path d="M22.875 10.056C22.5 8.583 20.058 8.1 17.746 8.92c-1.376.489-2.864 1.256-3.935 2.258-1.274 1.19-1.477 2.227-1.393 2.66.295 1.528 2.39 2.527 3.25 3.268v.004c-.254.125-2.111 1.065-2.546 2.026-.459 1.014.073 1.742.425 1.84 1.09.303 2.21-.243 2.812-1.14.58-.866.532-1.984.28-2.54a3.345 3.345 0 011.269-.073c1.454.17 1.74 1.079 1.685 1.459s-.36.59-.462.652-.133.086-.124.132c.012.069.06.066.146.051.12-.02.764-.309.792-1.01.035-.892-.819-1.888-2.33-1.862-.623.01-1.015.07-1.298.175-.02-.024-.042-.047-.064-.07-.934-.998-2.662-1.703-2.589-3.044.027-.487.196-1.77 3.32-3.327 2.559-1.275 4.608-.924 4.962-.146.505 1.11-1.095 3.175-3.753 3.473-1.012.114-1.545-.279-1.678-.425-.14-.154-.16-.16-.212-.132-.085.047-.032.183 0 .264.079.207.404.573.96.755.488.16 1.676.248 3.114-.308 1.61-.623 2.868-2.356 2.498-3.804zm-6.85 7.506a2.121 2.121 0 01-.063 1.364 2.32 2.32 0 01-.437.68c-.482.525-1.155.724-1.443.556-.312-.18-.156-.922.403-1.512.6-.635 1.465-1.044 1.465-1.044v-.002l.075-.042z" fill="#fce4ec" stroke-miterlimit="4" stroke-width=".5015165100000001" stroke="#fce4ec"/></svg>