<svg clip-rule="evenodd" fill-rule="evenodd" stroke-linejoin="round" stroke-miterlimit="1.414" viewBox="0 0 24 24" xmlns="http://www.w3.org/2000/svg"><defs><clipPath id="a"><path d="M239.03 226.6l-42.13 24.317a5.085 5.085 0 00-2.546 4.406v48.668c0 1.817.968 3.496 2.546 4.406l42.133 24.336a5.1 5.1 0 005.09 0l42.126-24.336a5.096 5.096 0 002.54-4.406v-48.668c0-1.816-.97-3.496-2.55-4.406l-42.12-24.317a5.123 5.123 0 00-5.1 0"/></clipPath></defs><path d="M10 4H4c-1.11 0-2 .89-2 2v12c0 1.097.903 2 2 2h16c1.097 0 2-.903 2-2V8a2 2 0 00-2-2h-8l-2-2z" fill="#8bc34a" fill-rule="nonzero"/><g transform="matrix(.1303 0 0 .1303 -14.228 -21.037)" clip-path="url(#a)" fill="#dcedc8"><path d="M331.36 246.79L212.64 188.6l-60.87 124.17 118.71 58.193z"/></g></svg>