<svg clip-rule="evenodd" stroke-linejoin="round" stroke-miterlimit="1.414" viewBox="0 0 24 24" xmlns="http://www.w3.org/2000/svg"><path d="M19 20H4a2 2 0 01-2-2V6c0-1.11.89-2 2-2h6l2 2h7c1.097 0 2 .903 2 2H4v10l2.14-8h17.07l-2.28 8.5c-.23.87-1.01 1.5-1.93 1.5z" fill="#546e7a"/><g transform="matrix(.04954 0 0 .04954 9.995 7.378)" fill="#fafafa" stroke-width="4.045"><circle cx="150" cy="150" r="30.221"/><path d="M148.1 23.078c-59.135 0-108.82 40.456-122.92 95.193a6.176 6.176 0 00-.213 1.509 6.045 6.045 0 006.044 6.044h51.172c2.439 0 4.52-1.448 5.475-3.532 0 0 .078-.144.102-.213 10.55-22.766 33.591-38.562 60.328-38.562 36.717 0 66.483 29.762 66.483 66.483s-29.758 66.483-66.475 66.483c-26.738 0-49.775-15.8-60.328-38.562-.028-.073-.102-.213-.102-.213a6.023 6.023 0 00-5.475-3.532H31.01a6.042 6.042 0 00-6.044 6.044c0 .522.088 1.028.213 1.51 14.097 54.737 63.782 95.192 122.92 95.192 70.097 0 126.92-56.829 126.92-126.92 0-70.093-56.825-126.92-126.92-126.92z"/></g></svg>