<svg clip-rule="evenodd" fill-rule="evenodd" stroke-linejoin="round" stroke-miterlimit="1.414" viewBox="0 0 24 24" xmlns="http://www.w3.org/2000/svg"><path d="M19 20H4a2 2 0 01-2-2V6c0-1.11.89-2 2-2h6l2 2h7c1.097 0 2 .903 2 2H4v10l2.14-8h17.07l-2.28 8.5c-.23.87-1.01 1.5-1.93 1.5z" fill="#ff8a65"/><path d="M20.62 15.706h-6.085v-1.217h6.085m-3.042-5.476a6.085 6.085 0 00-6.085 6.084 6.085 6.085 0 006.085 6.085 6.085 6.085 0 006.084-6.085 6.085 6.085 0 00-6.084-6.084z" fill-opacity=".949" fill="#fbe9e7" stroke-width=".608"/></svg>