<svg clip-rule="evenodd" fill-rule="evenodd" stroke-linejoin="round" stroke-miterlimit="1.414" viewBox="0 0 24 24" xmlns="http://www.w3.org/2000/svg"><path d="M10 4H4c-1.11 0-2 .89-2 2v12c0 1.097.903 2 2 2h16c1.097 0 2-.903 2-2V8a2 2 0 00-2-2h-8l-2-2z" fill="#2196f3" fill-rule="nonzero"/><path d="M17.22 14.68a1.765 1.765 0 00-1.765 1.765 1.765 1.765 0 001.765 1.765 1.765 1.765 0 001.765-1.765 1.765 1.765 0 00-1.765-1.765m0 4.707a2.942 2.942 0 01-2.942-2.942 2.942 2.942 0 012.942-2.942 2.942 2.942 0 012.942 2.942 2.942 2.942 0 01-2.942 2.942m0-7.355a6.958 6.958 0 00-6.472 4.413 6.958 6.958 0 006.472 4.413 6.958 6.958 0 006.472-4.413 6.958 6.958 0 00-6.472-4.413z" fill="#bbdefb" stroke-width=".588"/></svg>