<svg viewBox="0 0 24 24" xmlns="http://www.w3.org/2000/svg" clip-rule="evenodd" fill-rule="evenodd" stroke-linejoin="round" stroke-miterlimit="1.414"><path d="M19 20H4a2 2 0 01-2-2V6c0-1.11.89-2 2-2h6l2 2h7c1.097 0 2 .903 2 2H4v10l2.14-8h17.07l-2.28 8.5c-.23.87-1.01 1.5-1.93 1.5z" fill-rule="nonzero" fill="#ff7043"/><path d="M12.487 21.868L11.384 9.5H23.5l-1.104 12.366-4.96 1.375-4.95-1.373zm4.464-3.2l-3.926-2.36v-.855l3.926-2.361v1.323l-2.504 1.465 2.504 1.465v1.323zm.982-.001v-1.323l2.522-1.464-2.522-1.464v-1.323l3.926 2.35v.874l-3.926 2.35z" fill="#ffccbc"/></svg>