<svg clip-rule="evenodd" fill-rule="evenodd" stroke-linejoin="round" stroke-miterlimit="1.414" viewBox="0 0 24 24" xmlns="http://www.w3.org/2000/svg"><path d="M10 4H4c-1.11 0-2 .89-2 2v12c0 1.097.903 2 2 2h16c1.097 0 2-.903 2-2V8a2 2 0 00-2-2h-8l-2-2z" fill="#0288d1" fill-rule="nonzero"/><path d="M19.936 11.582c-.126 0-.24.003-.327.011-.673.059-1.301.352-1.731.81-.216.229-.41.557-.506.851-.105.324-.104.318-.104.826 0 .648.034.809.254 1.24.222.434.56.788 1.048 1.098.214.136.76.409 1.208.602.973.422 1.28.616 1.423.9l.06.117v.245c0 .236-.002.249-.05.346-.11.226-.369.41-.7.5-.126.033-.183.038-.464.038-.274 0-.34-.005-.466-.037a1.792 1.792 0 01-.55-.228c-.177-.117-.525-.469-.666-.673-.063-.09-.126-.164-.14-.164-.023 0-1.224.686-1.433.819-.07.045-.089.065-.089.101 0 .075.28.499.5.756.448.525 1.346.988 2.141 1.104.314.045.836.06 1.201.033a3.52 3.52 0 00.74-.139c.94-.275 1.58-.86 1.818-1.66.097-.326.136-.727.104-1.065-.066-.694-.28-1.185-.7-1.61-.391-.395-.928-.713-1.988-1.178-.919-.403-1.159-.559-1.291-.842-.114-.244-.093-.58.051-.79.168-.244.512-.365.895-.314.356.047.587.188.812.497.118.161.199.245.238.245.038 0 .204-.103.718-.444.524-.348.689-.466.7-.501.018-.055-.065-.184-.305-.479-.482-.591-1.048-.905-1.776-.984a6.466 6.466 0 00-.625-.03zm-5.789.1l-1.473.001c-2.843.003-3.503.008-3.521.026-.017.017-.022.192-.022.842v.82l1.293.005 1.293.005v3.66c0 2.012.005 3.676.011 3.697l.01.038h.94c.84 0 .94-.002.95-.026.005-.015.01-1.679.01-3.698v-3.67l1.292-.006 1.293-.004v-.83c0-.72-.003-.833-.025-.847-.012-.007-.755-.012-2.05-.012z" stroke-width=".018" fill="#90caf9"/></svg>