<svg viewBox="0 0 24 24" xmlns="http://www.w3.org/2000/svg" clip-rule="evenodd" fill-rule="evenodd" stroke-linejoin="round" stroke-miterlimit="2"><path d="M19 20H4a2 2 0 01-2-2V6c0-1.11.89-2 2-2h6l2 2h7c1.097 0 2 .903 2 2H4v10l2.14-8h17.07l-2.28 8.5c-.23.87-1.01 1.5-1.93 1.5z" fill-rule="nonzero" fill="#f44336"/><g fill="#ffcdd2"><path d="M20.76 9.028l.001 2.79a.105.105 0 01-.022.064.787.787 0 01-.389.351c-.15.067-.865.484-3.126.794-1.956.268-3.017.41-3.519.487-.448.07-.409.133-.409.133v-2.736a.1.1 0 01.077-.098c.136-.037.48-.116 1.232-.205 1.52-.18 3.36-.464 4.801-.817 1.363-.333 1.354-.763 1.354-.763zM20.76 12.791l.001 2.79a.103.103 0 01-.022.063.787.787 0 01-.389.351c-.15.067-.865.484-3.126.795-1.956.268-3.017.41-3.519.486-.448.07-.409.133-.409.133v-2.735a.1.1 0 01.077-.098c.136-.038.48-.116 1.232-.205 1.52-.18 3.36-.465 4.801-.817 1.363-.333 1.354-.763 1.354-.763zM20.76 16.41l.001 2.79a.103.103 0 01-.022.063.787.787 0 01-.389.351c-.15.067-.865.484-3.126.794-1.956.27-3.017.41-3.519.487-.448.07-.409.133-.409.133v-2.736a.1.1 0 01.077-.098c.136-.037.48-.116 1.232-.205 1.52-.179 3.36-.464 4.801-.816 1.363-.334 1.354-.764 1.354-.764z"/></g></svg>