<svg viewBox="0 0 24 24" xmlns="http://www.w3.org/2000/svg" clip-rule="evenodd" fill-rule="evenodd" stroke-linejoin="round" stroke-miterlimit="1.414"><path d="M19 20H4a2 2 0 01-2-2V6c0-1.11.89-2 2-2h6l2 2h7c1.097 0 2 .903 2 2H4v10l2.14-8h17.07l-2.28 8.5c-.23.87-1.01 1.5-1.93 1.5z" fill-rule="nonzero" fill="#ff7043"/><path d="M10.43 14.14l4.044-4.052 1.183 1.19a1.387 1.387 0 00.65 1.56v3.877c-.42.238-.699.693-.699 1.21 0 .768.632 1.4 1.4 1.4s1.4-.632 1.4-1.4c0-.517-.28-.972-.7-1.21v-3.4l1.448 1.462c-.05.105-.05.224-.05.35 0 .767.633 1.4 1.4 1.4s1.4-.633 1.4-1.4-.632-1.4-1.4-1.4c-.126 0-.244 0-.35.049l-1.798-1.798a1.385 1.385 0 00-.805-1.638c-.3-.112-.615-.14-.895-.063l-1.19-1.183.553-.545a1.381 1.381 0 011.973 0l5.591 5.59a1.381 1.381 0 010 1.974l-5.59 5.591a1.381 1.381 0 01-1.974 0l-5.591-5.59a1.381 1.381 0 010-1.974z" fill-rule="nonzero" fill="#ffccbc"/></svg>