<svg viewBox="0 0 24 24" xmlns="http://www.w3.org/2000/svg" clip-rule="evenodd" fill-rule="evenodd" stroke-linejoin="round" stroke-miterlimit="1.414"><path d="M10 4H4c-1.11 0-2 .89-2 2v12c0 1.097.903 2 2 2h16c1.097 0 2-.903 2-2V8a2 2 0 00-2-2h-8l-2-2z" fill-rule="nonzero" fill="#ff7043"/><path d="M12.487 21.868L11.384 9.5H23.5l-1.104 12.366-4.96 1.375-4.95-1.373zm4.464-3.2l-3.926-2.36v-.855l3.926-2.361v1.323l-2.504 1.465 2.504 1.465v1.323zm.982-.001v-1.323l2.522-1.464-2.522-1.464v-1.323l3.926 2.35v.874l-3.926 2.35z" fill="#ffccbc"/></svg>