<svg clip-rule="evenodd" stroke-linejoin="round" stroke-miterlimit="1.414" viewBox="0 0 24 24" xmlns="http://www.w3.org/2000/svg"><path d="M19 20H4a2 2 0 01-2-2V6c0-1.11.89-2 2-2h6l2 2h7c1.097 0 2 .903 2 2H4v10l2.14-8h17.07l-2.28 8.5c-.23.87-1.01 1.5-1.93 1.5z" fill="#ec407a"/><g fill="#f8bbd0" stroke-width="9.681" stroke="#f8bbd0"><path d="M12.543 18.7l-.5-.289 5.567-9.64.5.288z" stroke-width=".33641475"/><path d="M11.93 17.641H23.06v.577H11.93z" stroke-width=".33651156"/><path d="M17.718 21.18l-5.568-3.215.288-.5 5.568 3.215zM22.555 12.801l-5.569-3.215.289-.5 5.568 3.216z" stroke-width=".33641475"/><path d="M12.44 12.799l-.289-.5 5.568-3.214.289.5z" stroke-width=".33641475"/><path d="M22.452 18.7l-5.566-9.64.5-.289 5.565 9.64z" stroke-width=".33641475"/><path d="M12.37 11.917h.578v6.43h-.577zM22.046 11.917h.577v6.43h-.577z" stroke-width=".33651156"/><path d="M17.62 20.936l-.252-.437 4.842-2.796.252.437z" stroke-width=".33641475"/><path d="M23.388 18.534a1.215 1.215 0 01-2.103-1.213 1.215 1.215 0 012.103 1.213M13.705 12.942a1.215 1.215 0 01-2.102-1.213 1.215 1.215 0 012.102 1.213M11.606 18.534a1.216 1.216 0 01.445-1.658 1.216 1.216 0 011.658.445 1.214 1.214 0 01-2.103 1.213M21.289 12.942a1.216 1.216 0 01.445-1.658 1.216 1.216 0 011.657.445c.334.58.136 1.32-.444 1.658a1.215 1.215 0 01-1.658-.445M17.497 21.937a1.212 1.212 0 110-2.426 1.212 1.212 0 110 2.426M17.497 10.753a1.212 1.212 0 110-2.426 1.212 1.212 0 110 2.426" stroke-width=".33651156"/></g></svg>