<svg clip-rule="evenodd" stroke-linejoin="round" stroke-miterlimit="1.414" viewBox="0 0 24 24" xmlns="http://www.w3.org/2000/svg"><path d="M19 20H4a2 2 0 01-2-2V6c0-1.11.89-2 2-2h6l2 2h7c1.097 0 2 .903 2 2H4v10l2.14-8h17.07l-2.28 8.5c-.23.87-1.01 1.5-1.93 1.5z" fill="#ff5722"/><path d="M19.57 8.483a3.524 3.524 0 00-1.832.546l-2.863 1.825a3.283 3.283 0 00-1.484 2.195 3.462 3.462 0 00.34 2.222 3.287 3.287 0 00-.49 1.228 3.498 3.498 0 00.597 2.648c1.142 1.633 3.397 2.117 5.027 1.079l2.864-1.817a3.293 3.293 0 001.484-2.196 3.46 3.46 0 00-.342-2.22 3.308 3.308 0 00.492-1.228 3.502 3.502 0 00-.598-2.648v-.009a3.826 3.826 0 00-3.195-1.625zm.251 1.402a2.274 2.274 0 011.765.976 2.101 2.101 0 01.36 1.592 2.212 2.212 0 01-.068.267l-.055.165-.146-.11a3.708 3.708 0 00-1.12-.56l-.11-.032.01-.11a.643.643 0 00-.116-.425.684.684 0 00-.731-.265.628.628 0 00-.176.077L16.57 13.28a.598.598 0 00-.27.399.641.641 0 00.11.48.686.686 0 00.73.273.659.659 0 00.176-.077l1.098-.696a2.043 2.043 0 01.582-.256 2.272 2.272 0 012.44.905 2.103 2.103 0 01.36 1.592 1.976 1.976 0 01-.892 1.324l-2.864 1.824a2.106 2.106 0 01-.582.256 2.276 2.276 0 01-2.442-.906 2.101 2.101 0 01-.359-1.592 1.866 1.866 0 01.068-.264l.054-.165.147.11a3.708 3.708 0 001.117.555l.11.032-.01.11a.648.648 0 00.12.423.686.686 0 00.735.272.642.642 0 00.175-.077l2.86-1.825a.595.595 0 00.268-.4.633.633 0 00-.11-.479.686.686 0 00-.735-.272.628.628 0 00-.176.077l-1.098.697a2.097 2.097 0 01-.58.254 2.275 2.275 0 01-2.438-.904 2.103 2.103 0 01-.356-1.592 1.976 1.976 0 01.892-1.324l2.868-1.825a2.091 2.091 0 01.577-.254 2.274 2.274 0 01.676-.07z" fill="#ffccbc" stroke-width=".11"/></svg>