<svg clip-rule="evenodd" fill-rule="evenodd" stroke-linejoin="round" stroke-miterlimit="1.414" viewBox="0 0 24 24" xmlns="http://www.w3.org/2000/svg"><path d="M10 4H4c-1.11 0-2 .89-2 2v12c0 1.097.903 2 2 2h16c1.097 0 2-.903 2-2V8a2 2 0 00-2-2h-8l-2-2z" fill="#ff5252" fill-rule="nonzero"/><path d="M17.249 9.26a5.945 5.945 0 00-5.943 5.944 5.945 5.945 0 005.943 5.943 5.945 5.945 0 005.943-5.943A5.945 5.945 0 0017.25 9.26zm0 10.697a4.753 4.753 0 01-4.755-4.754c0-1.1.375-2.11 1.005-2.912l6.662 6.662a4.697 4.697 0 01-2.912 1.005zm3.75-1.842l-6.662-6.662a4.697 4.697 0 012.912-1.005 4.753 4.753 0 014.754 4.755c0 1.1-.374 2.11-1.004 2.912z" fill="#ffcdd2" stroke-width=".594"/></svg>