<svg clip-rule="evenodd" fill-rule="evenodd" stroke-linejoin="round" stroke-miterlimit="1.414" viewBox="0 0 24 24" xmlns="http://www.w3.org/2000/svg"><path d="M10 4H4c-1.11 0-2 .89-2 2v12c0 1.097.903 2 2 2h16c1.097 0 2-.903 2-2V8a2 2 0 00-2-2h-8l-2-2z" fill="#7e57c2" fill-rule="nonzero"/><path d="M17.265 8.493a6.433 6.433 0 106.197 4.698h-.002a.321.321 0 00-.015-.057c-.002-.007-.009-.02-.009-.02a.321.321 0 00-.29-.186.322.322 0 00-.323.32c0 .037.007.072.018.104l-.001.001a5.813 5.813 0 01.214 1.573 5.752 5.752 0 01-1.695 4.094 5.752 5.752 0 01-4.094 1.695 5.752 5.752 0 01-4.095-1.695 5.753 5.753 0 01-1.696-4.094c0-1.547.603-3.001 1.696-4.095a5.751 5.751 0 014.095-1.695c1.38 0 2.687.48 3.73 1.362a.786.786 0 00-.054.288.786.786 0 10.517-.739 6.408 6.408 0 00-4.193-1.554zm-.813 2.999l-2.37 6.15h1.486l.387-1.042h2.239l-.405-1.153h-1.475l.96-2.645 1.705 4.84h1.484l-2.37-6.15z" fill="#d1c4e9" stroke-width=".997"/></svg>