<svg viewBox="0 0 24 24" xmlns="http://www.w3.org/2000/svg" clip-rule="evenodd" fill-rule="evenodd" stroke-linejoin="round" stroke-miterlimit="2"><path d="M10 4H4c-1.11 0-2 .89-2 2v12c0 1.097.903 2 2 2h16c1.097 0 2-.903 2-2V8a2 2 0 00-2-2h-8l-2-2z" fill-rule="nonzero" fill="#f44336"/><g fill="#ffcdd2"><path d="M20.76 9.028v2.79a.105.105 0 01-.021.064.787.787 0 01-.39.351c-.15.067-.864.484-3.125.794-1.956.268-3.017.41-3.52.487-.447.069-.408.133-.408.133v-2.736a.1.1 0 01.077-.098c.136-.037.48-.116 1.232-.205 1.519-.18 3.36-.464 4.8-.817 1.364-.333 1.355-.763 1.355-.763zM20.76 12.791v2.79a.103.103 0 01-.021.063.787.787 0 01-.39.351c-.15.067-.864.484-3.125.795-1.956.268-3.017.409-3.52.486-.447.069-.408.133-.408.133v-2.735a.1.1 0 01.077-.098c.136-.038.48-.116 1.232-.205 1.519-.18 3.36-.465 4.8-.817 1.364-.333 1.355-.763 1.355-.763zM20.76 16.409V19.2a.103.103 0 01-.021.063.787.787 0 01-.39.351c-.15.067-.864.484-3.125.794-1.956.269-3.017.41-3.52.487-.447.069-.408.133-.408.133v-2.736a.1.1 0 01.077-.098c.136-.037.48-.116 1.232-.205 1.519-.179 3.36-.464 4.8-.816 1.364-.334 1.355-.764 1.355-.764z"/></g></svg>