<svg clip-rule="evenodd" fill-rule="evenodd" stroke-linejoin="round" stroke-miterlimit="1.414" viewBox="0 0 24 24" xmlns="http://www.w3.org/2000/svg"><path d="M10 4H4c-1.11 0-2 .89-2 2v12c0 1.097.903 2 2 2h16c1.097 0 2-.903 2-2V8a2 2 0 00-2-2h-8l-2-2z" fill="#4caf50" fill-rule="nonzero"/><g fill="#c8e6c9"><path d="M15.597 21.678a.637.637 0 01-.147-.018.739.739 0 01-.513-.857l1.915-10.2a.734.734 0 01.314-.482.63.63 0 01.495-.087.74.74 0 01.513.858l-1.92 10.2a.73.73 0 01-.312.481.632.632 0 01-.345.105zM19.436 20.233h-.048a.658.658 0 01-.472-.267.78.78 0 01.07-1.003l3.293-3.218L19 12.75a.78.78 0 01-.1-1 .663.663 0 01.467-.283.636.636 0 01.501.167l3.866 3.534a.78.78 0 01.102 1 .743.743 0 01-.1.116l-3.85 3.763a.646.646 0 01-.451.187zM13.672 20.235a.648.648 0 01-.451-.189l-3.854-3.765a.775.775 0 01.006-1.108l3.867-3.533a.623.623 0 01.495-.169c.19.022.361.125.47.283a.78.78 0 01-.099 1.002l-3.277 2.993 3.293 3.216c.266.27.297.699.07 1.003a.656.656 0 01-.472.267z" fill-rule="nonzero"/></g></svg>