<svg clip-rule="evenodd" fill-rule="evenodd" stroke-linejoin="round" stroke-miterlimit="1.414" viewBox="0 0 24 24" xmlns="http://www.w3.org/2000/svg"><path d="M10 4H4c-1.11 0-2 .89-2 2v12c0 1.097.903 2 2 2h16c1.097 0 2-.903 2-2V8a2 2 0 00-2-2h-8l-2-2z" fill="#0288d1" fill-rule="nonzero"/><path d="M23.288 18.015a.645.645 0 01-.345.573l-5.14 2.888c-.103.078-.234.117-.37.117s-.267-.039-.37-.117l-5.14-2.888a.645.645 0 01-.345-.573V12.16c0-.247.136-.462.345-.573l5.14-2.888c.103-.078.233-.117.37-.117s.267.039.37.117l5.14 2.888c.208.111.345.326.345.573v5.855m-5.855-8.034l-3.878 2.179 3.878 2.18 3.877-2.18-3.877-2.18m-4.554 7.651l3.903 2.199v-4.365l-3.903-2.193v4.36m9.108 0v-4.36l-3.904 2.193v4.365z" fill="#b3e5fc" stroke-width=".651"/></svg>