<svg clip-rule="evenodd" fill-rule="evenodd" stroke-linejoin="round" stroke-miterlimit="1.414" viewBox="0 0 24 24" xmlns="http://www.w3.org/2000/svg"><path d="M10 4H4c-1.11 0-2 .89-2 2v12c0 1.097.903 2 2 2h16c1.097 0 2-.903 2-2V8a2 2 0 00-2-2h-8l-2-2z" fill="#1e88e5" fill-rule="nonzero"/><path d="M17.123 8.692a1.923 1.923 0 00-1.544 2.77l-2.161 1.616a.769.769 0 10.348.47l2.676-1.967c-.353-.332-.536-.876-.38-1.368a1.3 1.3 0 012.537.372l.623.013a1.923 1.923 0 00-2.1-1.906zm.234 1.222a.771.771 0 10.406 1.425l2.692 1.96c.21-.438.672-.779 1.19-.779a1.304 1.304 0 01.414 2.54l.178.598a1.928 1.928 0 10-1.931-3.218l-2.199-1.576a.774.774 0 00-.75-.95zm-4.334 1.873a1.895 1.895 0 00-1.555.776c-.62.85-.428 2.045.429 2.67.42.306.92.418 1.396.354l.853 2.548a.765.765 0 00.049 1.197.766.766 0 001.07-.162.77.77 0 00-.567-1.213l-1.025-3.145c-.424.226-.994.228-1.411-.077a1.294 1.294 0 01-.29-1.805c.334-.459.918-.63 1.435-.464l.206-.582a1.918 1.918 0 00-.59-.097zm8.65 1.264a.769.769 0 00-.799.998c.046.14.129.257.234.346l-1.036 3.14c.479.064.942.396 1.1.885a1.293 1.293 0 01-.838 1.626 1.295 1.295 0 01-1.441-.459l-.515.35c.473.655 1.333.961 2.147.698a1.913 1.913 0 001.238-2.406 1.898 1.898 0 00-.922-1.098l.823-2.556a.771.771 0 00.672-.998.764.764 0 00-.663-.526zm-8.56 4.568a1.916 1.916 0 103.437 1.448l2.69-.026a.766.766 0 10-.004-.584l-3.31.008c.088.474-.083 1.02-.498 1.325a1.295 1.295 0 01-1.821-1.795z" stroke-width=".32381076000000003" fill="#e3f2fd" stroke="#e3f2fd"/></svg>