<svg clip-rule="evenodd" stroke-linejoin="round" stroke-miterlimit="1.414" viewBox="0 0 24 24" xmlns="http://www.w3.org/2000/svg"><path d="M19 20H4a2 2 0 01-2-2V6c0-1.11.89-2 2-2h6l2 2h7c1.097 0 2 .903 2 2H4v10l2.14-8h17.07l-2.28 8.5c-.23.87-1.01 1.5-1.93 1.5z" fill="#0288d1"/><path d="M19.935 11.582c-.125 0-.24.003-.326.01-.673.06-1.301.353-1.731.81-.216.23-.411.558-.506.852-.105.324-.105.318-.104.825 0 .649.033.81.254 1.24.222.434.56.788 1.047 1.098.214.136.762.41 1.208.603.973.421 1.281.616 1.424.9l.059.116v.245c0 .237-.001.249-.05.347-.109.225-.368.41-.7.5-.125.033-.183.038-.463.038-.274 0-.341-.006-.467-.037a1.792 1.792 0 01-.549-.228c-.177-.118-.525-.47-.667-.674-.062-.09-.125-.164-.14-.164-.022 0-1.223.686-1.432.82-.071.044-.089.065-.089.1 0 .075.28.5.5.757.448.525 1.346.987 2.14 1.103.315.046.837.06 1.202.034a3.52 3.52 0 00.74-.14c.94-.275 1.58-.86 1.817-1.66.097-.325.137-.726.105-1.065-.066-.694-.28-1.185-.7-1.61-.392-.394-.929-.712-1.988-1.177-.92-.403-1.16-.56-1.291-.843-.115-.244-.093-.58.05-.789.17-.245.513-.365.896-.315.356.047.586.189.812.498.117.16.198.244.238.244.038 0 .204-.102.718-.444.524-.347.688-.465.7-.5.017-.056-.065-.185-.305-.48-.482-.59-1.049-.904-1.776-.983a6.465 6.465 0 00-.625-.031zm-5.788.1h-1.473c-2.844.003-3.503.008-3.521.026-.018.018-.022.192-.022.843v.82l1.293.005 1.293.004v3.66c0 2.013.005 3.677.011 3.698l.01.038h.94c.84 0 .94-.002.95-.027.005-.015.009-1.678.009-3.697V13.38l1.293-.005 1.293-.005v-.83c0-.72-.003-.832-.026-.846-.012-.008-.754-.012-2.05-.013z" stroke-width=".018" fill-rule="evenodd" fill="#90caf9"/></svg>