<svg clip-rule="evenodd" fill-rule="evenodd" stroke-linejoin="round" stroke-miterlimit="1.414" viewBox="0 0 24 24" xmlns="http://www.w3.org/2000/svg"><path d="M19 20H4a2 2 0 01-2-2V6c0-1.11.89-2 2-2h6l2 2h7c1.097 0 2 .903 2 2H4v10l2.14-8h17.07l-2.28 8.5c-.23.87-1.01 1.5-1.93 1.5z" fill="#1e88e5"/><path d="M23.014 10.784l-.877-1.06a.953.952 0 00-.734-.341H13.83a.918.918 0 00-.726.347l-.878 1.054a1.253 1.253 0 00-.29.808v7.89c0 .695.562 1.263 1.262 1.263h8.838c.694 0 1.262-.568 1.262-1.262v-7.89c0-.31-.107-.588-.283-.81zm-5.398 2.701l3.472 3.472H18.88v1.263h-2.526v-1.263h-2.209zm-4.341-2.84l.516-.63h7.576l.587.63z" fill="#bbdefb" stroke-width=".988"/></svg>