<svg clip-rule="evenodd" stroke-linejoin="round" stroke-miterlimit="1.414" viewBox="0 0 24 24" xmlns="http://www.w3.org/2000/svg"><path d="M19 20H4a2 2 0 01-2-2V6c0-1.11.89-2 2-2h6l2 2h7c1.097 0 2 .903 2 2H4v10l2.14-8h17.07l-2.28 8.5c-.23.87-1.01 1.5-1.93 1.5z" fill="#ff5252"/><path d="M17.249 9.26a5.945 5.945 0 00-5.943 5.944 5.945 5.945 0 005.943 5.943 5.945 5.945 0 005.943-5.943 5.945 5.945 0 00-5.943-5.943zm0 10.698a4.753 4.753 0 01-4.754-4.755c0-1.1.374-2.11 1.004-2.912l6.662 6.662a4.696 4.696 0 01-2.912 1.005zm3.75-1.843l-6.662-6.662a4.696 4.696 0 012.912-1.004 4.753 4.753 0 014.754 4.754c0 1.1-.374 2.11-1.004 2.912z" fill="#ffcdd2" stroke-width=".594"/></svg>