<svg clip-rule="evenodd" fill-rule="evenodd" stroke-linejoin="round" stroke-miterlimit="1.414" viewBox="0 0 24 24" xmlns="http://www.w3.org/2000/svg"><path d="M10 4H4c-1.11 0-2 .89-2 2v12c0 1.097.903 2 2 2h16c1.097 0 2-.903 2-2V8a2 2 0 00-2-2h-8l-2-2z" fill="#ef5350" fill-rule="nonzero"/><path d="M19.946 13.159V11.83h-2.658v3.654a1.663 1.663 0 00-.996-.332 1.661 1.661 0 00-1.661 1.661 1.661 1.661 0 001.66 1.661 1.661 1.661 0 001.662-1.66v-3.655h1.993m-2.658-4.65a6.644 6.644 0 016.644 6.643 6.644 6.644 0 01-6.644 6.644 6.644 6.644 0 01-6.644-6.644 6.644 6.644 0 016.644-6.644z" fill="#ffcdd2" stroke-width=".664"/></svg>