<svg clip-rule="evenodd" fill-rule="evenodd" stroke-linejoin="round" stroke-miterlimit="1.414" viewBox="0 0 24 24" xmlns="http://www.w3.org/2000/svg"><path d="M10 4H4c-1.11 0-2 .89-2 2v12c0 1.097.903 2 2 2h16c1.097 0 2-.903 2-2V8a2 2 0 00-2-2h-8l-2-2z" fill="#ec407a" fill-rule="nonzero"/><g fill="#f8bbd0" stroke-width="9.681" stroke="#f8bbd0"><path d="M12.543 18.7l-.5-.289 5.567-9.64.5.288z" stroke-width=".33641475"/><path d="M11.93 17.641H23.06v.577H11.93z" stroke-width=".33651156"/><path d="M17.718 21.18l-5.568-3.215.288-.5 5.568 3.215zM22.555 12.801l-5.569-3.214.289-.5 5.568 3.215z" stroke-width=".33641475"/><path d="M12.44 12.8l-.289-.5 5.568-3.215.289.5z" stroke-width=".33641475"/><path d="M22.452 18.7l-5.566-9.64.5-.289 5.565 9.64z" stroke-width=".33641475"/><path d="M12.37 11.917h.578v6.43h-.577zM22.046 11.917h.577v6.43h-.577z" stroke-width=".33651156"/><path d="M17.62 20.936l-.252-.436 4.842-2.797.252.437z" stroke-width=".33641475"/><path d="M23.388 18.534a1.215 1.215 0 01-2.103-1.213 1.215 1.215 0 012.103 1.213M13.705 12.942a1.215 1.215 0 01-2.102-1.213 1.215 1.215 0 012.102 1.213M11.606 18.534a1.216 1.216 0 01.445-1.657 1.216 1.216 0 011.658.444 1.214 1.214 0 01-2.103 1.213M21.289 12.942a1.216 1.216 0 01.445-1.658 1.216 1.216 0 011.657.445c.334.58.136 1.321-.444 1.658a1.215 1.215 0 01-1.658-.445M17.497 21.937a1.212 1.212 0 110-2.426 1.212 1.212 0 110 2.426M17.497 10.753a1.212 1.212 0 110-2.426 1.212 1.212 0 110 2.426" stroke-width=".33651156"/></g></svg>