<svg clip-rule="evenodd" fill-rule="evenodd" stroke-linejoin="round" stroke-miterlimit="1.414" viewBox="0 0 24 24" xmlns="http://www.w3.org/2000/svg"><path d="M10 4H4c-1.11 0-2 .89-2 2v12c0 1.097.903 2 2 2h16c1.097 0 2-.903 2-2V8a2 2 0 00-2-2h-8l-2-2z" fill="#0277bd" fill-rule="nonzero"/><g fill="#b3e5fc"><path d="M15.625 8.868v.001h-.329c-.392-.004-.72.21-1.005.433-.312.245-.578.564-.662.992-.047.25-.037.47-.037.688v1.726c0 .61-.227 1.062-.534 1.359-.174.171-.544.328-.964.47v.779c.373.103.731.242.93.418.33.288.567.702.567 1.244v2.015c0 .67.16 1.18.625 1.53.465.349 1.006.523 1.625.54l.414-.003v-1.005c-.323-.095-.503-.204-.632-.328-.233-.211-.364-.553-.364-1.029v-1.627c-.01-.553-.099-.986-.3-1.3-.202-.312-.595-.586-1.18-.822.646-.296 1.079-.682 1.3-1.158.13-.283.18-.665.18-1.145v-1.492c0-.492.114-.838.312-1.035.108-.107.299-.195.565-.266l.42.003v-.988h-.93zM20.182 8.868v.001h.329c.392-.004.72.21 1.005.433.311.245.578.564.661.992.048.25.038.47.038.688v1.726c0 .61.227 1.062.534 1.359.174.171.543.328.964.47v.779c-.373.103-.732.242-.93.418-.33.288-.568.702-.568 1.244v2.015c0 .67-.16 1.18-.624 1.53-.465.349-1.006.523-1.625.54l-.414-.003v-1.005c.323-.095.502-.204.632-.328.232-.211.364-.553.364-1.029v-1.627c.01-.553.098-.986.3-1.3.201-.312.595-.586 1.18-.822-.646-.296-1.08-.682-1.3-1.158-.13-.283-.18-.665-.18-1.145v-1.492c0-.492-.114-.838-.312-1.035-.108-.107-.3-.195-.565-.266l-.42.003v-.988h.93z"/></g></svg>