<svg clip-rule="evenodd" stroke-linejoin="round" stroke-miterlimit="1.414" viewBox="0 0 24 24" xmlns="http://www.w3.org/2000/svg"><path d="M19 20H4a2 2 0 01-2-2V6c0-1.11.89-2 2-2h6l2 2h7c1.097 0 2 .903 2 2H4v10l2.14-8h17.07l-2.28 8.5c-.23.87-1.01 1.5-1.93 1.5z" fill="#ec407a"/><path d="M21.944 12.474a4.868 4.868 0 010 6.885 4.878 4.878 0 01-4.918 1.2c-.959.3-1.992.3-2.95 0a4.878 4.878 0 01-4.919-1.2 4.868 4.868 0 010-6.885 4.878 4.878 0 014.918-1.2 4.95 4.95 0 012.951 0 4.878 4.878 0 014.918 1.2m-9.836 6.885a4.868 4.868 0 010-6.885 3.452 3.452 0 00-1.967.984 3.478 3.478 0 000 4.917c.556.556 1.244.88 1.967.984m2.951 0a4.868 4.868 0 010-6.885 3.452 3.452 0 00-1.967.984 3.478 3.478 0 000 4.918c.556.555 1.244.88 1.967.983m5.901-5.901a3.452 3.452 0 00-1.967-.984 4.868 4.868 0 010 6.885 3.452 3.452 0 001.967-.983 3.478 3.478 0 000-4.918m-4.917 0a3.478 3.478 0 000 4.918c.295.295.624.526.983.688a3.33 3.33 0 00.984-.688 3.478 3.478 0 000-4.918 3.33 3.33 0 00-.984-.689 3.33 3.33 0 00-.983.689z" fill="#f8bbd0" stroke-width=".695"/></svg>