<svg clip-rule="evenodd" fill-rule="evenodd" stroke-linejoin="round" stroke-miterlimit="1.414" viewBox="0 0 24 24" xmlns="http://www.w3.org/2000/svg"><path d="M10 4H4c-1.11 0-2 .89-2 2v12c0 1.097.903 2 2 2h16c1.097 0 2-.903 2-2V8a2 2 0 00-2-2h-8l-2-2z" fill="#ff7043" fill-rule="nonzero"/><path d="M17.338 9.322a6.186 6.186 0 016.186 6.186 6.186 6.186 0 01-6.186 6.187 6.186 6.186 0 01-6.186-6.187 6.186 6.186 0 016.186-6.186m0 5.258a.928.928 0 00-.928.928.928.928 0 00.928.928.928.928 0 00.928-.928.928.928 0 00-.928-.927m-3.403 0a.928.928 0 00-.928.927.928.928 0 00.928.928.928.928 0 00.928-.928.928.928 0 00-.928-.927m6.806 0a.928.928 0 00-.928.927.928.928 0 00.928.928.928.928 0 00.928-.928.928.928 0 00-.928-.927z" fill="#ffccbc" stroke-width=".619"/></svg>