<svg clip-rule="evenodd" stroke-linejoin="round" stroke-miterlimit="1.414" viewBox="0 0 24 24" xmlns="http://www.w3.org/2000/svg"><path d="M19 20H4a2 2 0 01-2-2V6c0-1.11.89-2 2-2h6l2 2h7c1.097 0 2 .903 2 2H4v10l2.14-8h17.07l-2.28 8.5c-.23.87-1.01 1.5-1.93 1.5z" fill="#0277bd"/><g fill="#b3e5fc"><path d="M15.625 8.867v.001h-.329c-.392-.004-.72.21-1.005.434-.312.244-.578.563-.662.991-.047.25-.037.47-.037.689v1.726c0 .609-.227 1.062-.534 1.358-.174.172-.544.328-.964.47v.78c.373.102.731.241.93.418.33.288.567.702.567 1.243v2.015c0 .67.16 1.18.625 1.53.465.35 1.006.523 1.625.54l.414-.003v-1.004c-.323-.095-.503-.205-.632-.329-.233-.21-.364-.553-.364-1.028v-1.627c-.01-.554-.099-.987-.3-1.3-.202-.312-.595-.587-1.18-.823.646-.296 1.079-.681 1.3-1.157.13-.283.18-.665.18-1.145v-1.492c0-.493.114-.838.312-1.035.108-.107.299-.196.565-.267l.42.003v-.988h-.93zM20.182 8.867v.001h.329c.392-.004.72.21 1.005.434.311.244.578.563.661.991.048.25.038.47.038.689v1.726c0 .609.227 1.062.534 1.358.174.172.543.328.964.47v.78c-.373.102-.732.241-.93.418a1.61 1.61 0 00-.568 1.243v2.015c0 .67-.16 1.18-.624 1.53-.465.35-1.006.523-1.625.54l-.414-.003v-1.004c.323-.095.502-.205.632-.329.232-.21.364-.553.364-1.028v-1.627c.01-.554.098-.987.3-1.3.201-.312.595-.587 1.18-.823-.646-.296-1.08-.681-1.3-1.157-.13-.283-.18-.665-.18-1.145v-1.492c0-.493-.114-.838-.312-1.035-.108-.107-.3-.196-.565-.267l-.42.003v-.988h.93z"/></g></svg>