<svg viewBox="0 0 24 24" xmlns="http://www.w3.org/2000/svg" clip-rule="evenodd" fill-rule="evenodd" stroke-linejoin="round" stroke-miterlimit="1.414"><path d="M19 20H4c-1.111 0-2-.9-2-2V6c0-1.11.89-2 2-2h6l2 2h7c1.097 0 2 .903 2 2H4v10l2.14-8h17.07l-2.28 8.5c-.23.87-1.011 1.5-1.93 1.5z" fill="#616161"/><path d="M23.815 15.44c0 3.389-2.788 6.177-6.177 6.177s-6.177-2.789-6.177-6.177 2.788-6.177 6.177-6.177 6.177 2.788 6.177 6.177" fill-rule="nonzero" fill="#848992"/><path d="M17.742 13.124l1.599 3.946-2.415-1.902.816-2.044zm2.84 4.855l-2.459-5.918a.397.397 0 00-.38-.26.41.41 0 00-.392.26l-2.699 6.49h.923l1.069-2.675 3.188 2.575c.128.104.22.151.34.151h.011c.242 0 .441-.199.441-.44v-.001a.584.584 0 00-.042-.182" fill-rule="nonzero" fill="#fff"/></svg>