<svg clip-rule="evenodd" stroke-linejoin="round" stroke-miterlimit="1.414" viewBox="0 0 24 24" xmlns="http://www.w3.org/2000/svg"><path d="M19 20H4a2 2 0 01-2-2V6c0-1.11.89-2 2-2h6l2 2h7c1.097 0 2 .903 2 2H4v10l2.14-8h17.07l-2.28 8.5c-.23.87-1.01 1.5-1.93 1.5z" fill="#f06292"/><path d="M22.875 10.057C22.5 8.584 20.058 8.1 17.746 8.92c-1.375.489-2.864 1.256-3.935 2.257-1.273 1.19-1.476 2.227-1.393 2.66.296 1.528 2.39 2.527 3.25 3.268v.005c-.254.124-2.111 1.064-2.546 2.026-.458 1.014.073 1.741.425 1.84 1.09.303 2.21-.243 2.812-1.14.58-.866.532-1.984.28-2.54a3.345 3.345 0 011.269-.073c1.455.17 1.74 1.078 1.686 1.458s-.36.59-.462.653-.134.085-.125.132c.012.068.06.066.146.05.12-.02.764-.309.792-1.01.035-.891-.819-1.888-2.33-1.861-.623.01-1.014.07-1.297.175-.021-.024-.042-.048-.065-.071-.934-.997-2.662-1.703-2.589-3.043.027-.488.196-1.77 3.32-3.327 2.559-1.276 4.608-.924 4.962-.147.506 1.111-1.095 3.176-3.752 3.474-1.013.113-1.546-.28-1.679-.425-.14-.154-.16-.161-.212-.132-.085.047-.031.183 0 .264.08.206.405.572.96.755.488.16 1.677.248 3.114-.308 1.61-.624 2.868-2.356 2.498-3.804zm-6.85 7.506a2.121 2.121 0 01-.063 1.363 2.32 2.32 0 01-.437.68c-.481.525-1.154.724-1.443.557-.312-.181-.155-.922.403-1.512.601-.636 1.466-1.044 1.466-1.044l-.002-.003.076-.041z" fill="#fce4ec" stroke-miterlimit="4" stroke-width=".5015165100000001" stroke="#fce4ec"/></svg>