<svg clip-rule="evenodd" fill-rule="evenodd" stroke-linejoin="round" stroke-miterlimit="1.414" viewBox="0 0 24 24" xmlns="http://www.w3.org/2000/svg"><path d="M10 4H4c-1.11 0-2 .89-2 2v12c0 1.097.903 2 2 2h16c1.097 0 2-.903 2-2V8a2 2 0 00-2-2h-8l-2-2z" fill="#ff8a65" fill-rule="nonzero"/><path d="M20.62 15.706h-6.085v-1.217h6.085m-3.042-5.476a6.085 6.085 0 00-6.085 6.084 6.085 6.085 0 006.085 6.085 6.085 6.085 0 006.084-6.085 6.085 6.085 0 00-6.084-6.084z" fill-opacity=".949" fill="#fbe9e7" stroke-width=".608"/><style></style></svg>