<svg clip-rule="evenodd" fill-rule="evenodd" stroke-linejoin="round" stroke-miterlimit="1.414" viewBox="0 0 24 24" xmlns="http://www.w3.org/2000/svg"><path d="M10 4H4c-1.11 0-2 .89-2 2v12c0 1.097.903 2 2 2h16c1.097 0 2-.903 2-2V8a2 2 0 00-2-2h-8l-2-2z" fill="#ec407a" fill-rule="nonzero"/><path d="M21.944 12.474a4.869 4.869 0 010 6.885 4.878 4.878 0 01-4.918 1.2c-.959.3-1.992.3-2.95 0a4.878 4.878 0 01-4.919-1.2 4.869 4.869 0 010-6.885 4.878 4.878 0 014.918-1.2 4.95 4.95 0 012.951 0 4.878 4.878 0 014.918 1.2m-9.836 6.885a4.869 4.869 0 010-6.885 3.452 3.452 0 00-1.967.983 3.477 3.477 0 000 4.918c.556.556 1.244.88 1.967.984m2.95 0a4.869 4.869 0 010-6.885 3.452 3.452 0 00-1.966.983 3.477 3.477 0 000 4.918c.555.556 1.244.88 1.967.984m5.901-5.902a3.452 3.452 0 00-1.967-.983 4.869 4.869 0 010 6.885 3.452 3.452 0 001.967-.984 3.477 3.477 0 000-4.918m-4.918 0a3.477 3.477 0 000 4.918c.295.295.625.527.984.689a3.33 3.33 0 00.984-.689 3.477 3.477 0 000-4.918 3.33 3.33 0 00-.984-.688 3.33 3.33 0 00-.984.688z" stroke-width=".491" fill="#f8bbd0"/></svg>