<svg clip-rule="evenodd" fill-rule="evenodd" stroke-linejoin="round" stroke-miterlimit="1.414" viewBox="0 0 24 24" xmlns="http://www.w3.org/2000/svg"><path d="M10 4H4c-1.11 0-2 .89-2 2v12c0 1.097.903 2 2 2h16c1.097 0 2-.903 2-2V8a2 2 0 00-2-2h-8l-2-2z" fill="#f9a825" fill-rule="nonzero"/><path d="M19.017 17.774a1.196 1.196 0 001.196-1.196c0-.663-.538-1.195-1.196-1.195a1.196 1.196 0 00-1.196 1.196 1.196 1.196 0 001.196 1.195m3.587-5.38a1.196 1.196 0 011.195 1.196v5.977a1.196 1.196 0 01-1.196 1.196H15.43a1.196 1.196 0 01-1.195-1.196V13.59c0-.664.538-1.196 1.195-1.196h.598V11.2a2.989 2.989 0 012.989-2.99 2.989 2.989 0 012.989 2.99v1.195h.598m-3.587-2.989a1.793 1.793 0 00-1.793 1.794v1.195h3.586V11.2a1.793 1.793 0 00-1.793-1.794z" fill="#fff9c4" stroke-width=".598"/></svg>