<svg clip-rule="evenodd" fill-rule="evenodd" stroke-linejoin="round" stroke-miterlimit="1.414" viewBox="0 0 24 24" xmlns="http://www.w3.org/2000/svg"><path d="M10 4H4c-1.11 0-2 .89-2 2v12c0 1.097.903 2 2 2h16c1.097 0 2-.903 2-2V8a2 2 0 00-2-2h-8l-2-2z" fill="#ffb300" fill-rule="nonzero"/><path d="M20.911 14.422a4.939 4.939 0 00-4.846-3.976 4.949 4.949 0 00-4.385 2.657 3.959 3.959 0 00-3.527 3.937 3.956 3.956 0 003.956 3.956h8.571a3.297 3.297 0 003.297-3.297c0-1.74-1.352-3.152-3.066-3.277z" fill="#ffecb3" stroke-width=".659"/></svg>