<svg fill="none" viewBox="0 0 24 24" xmlns="http://www.w3.org/2000/svg"><path d="M19 20H4a2 2 0 01-2-2V6c0-1.11.89-2 2-2h6l2 2h7c1.097 0 2 .903 2 2H4v10l2.14-8h17.07l-2.28 8.5c-.23.87-1.01 1.5-1.93 1.5z" fill="#00838f"/><g clip-rule="evenodd" fill-rule="evenodd" stroke-linejoin="round" stroke-miterlimit="1.414"><path d="M9.725 9.25l7.104 12.257L23.93 9.31V9.25h-2.762l-4.3 7.385-4.279-7.385H9.725z" fill="#41b883" stroke-width=".696"/><path d="M12.588 9.25l4.28 7.387 4.3-7.387h-2.59l-1.693 2.907L15.2 9.25z" fill="#35495e"/></g></svg>