<svg clip-rule="evenodd" fill-rule="evenodd" stroke-linejoin="round" stroke-miterlimit="1.414" viewBox="0 0 24 24" xmlns="http://www.w3.org/2000/svg"><path d="M10 4H4c-1.11 0-2 .89-2 2v12c0 1.097.903 2 2 2h16c1.097 0 2-.903 2-2V8a2 2 0 00-2-2h-8l-2-2z" fill="#42a5f5" fill-rule="nonzero"/><path d="M15.906 8.537c-1.02 0-1.845.826-1.845 1.845v1.084h2.767c.252 0 .459.369.459.62h-4.608c-1.02 0-1.845.826-1.845 1.846v2.44c0 1.02.826 1.845 1.845 1.845h.761v-1.73c0-1.019.821-1.845 1.84-1.845h3.388a1.84 1.84 0 001.846-1.84v-2.42c0-1.02-.826-1.845-1.846-1.845zm-.464 1.039c.258 0 .464.078.464.458s-.206.575-.464.575c-.252 0-.459-.194-.459-.575s.207-.458.459-.458z" fill="#3c78aa"/><path d="M21.132 11.763v1.73a1.84 1.84 0 01-1.839 1.845h-3.387a1.84 1.84 0 00-1.845 1.839v2.42a1.846 1.846 0 001.845 1.846h2.762a1.846 1.846 0 001.846-1.846v-1.084h-2.77c-.251 0-.457-.368-.457-.62h4.608a1.846 1.846 0 001.845-1.846v-2.439a1.846 1.846 0 00-1.845-1.845zm-6.22 2.913l-.002.002c.008-.001.016 0 .024-.002zm4.22 4.695c.252 0 .459.194.459.575a.458.458 0 01-.459.457c-.258 0-.464-.077-.464-.457s.206-.575.464-.575z" fill="#fdd835"/></svg>