<svg viewBox="0 0 300 300" xmlns="http://www.w3.org/2000/svg"><path d="M110.978 292.583c1.71-.48 4.857-.93 6.995-.997l3.885-.122v-5.072c0-9.684-6.355-24.885-13.844-33.115-1.219-1.34-5.475-4.083-9.458-6.096-7.061-3.568-7.462-3.644-16.062-3.032-4.85.345-11.618 1.391-15.038 2.325-21.15 5.777-53.824-10.128-53.871-26.223-.017-5.957 2.584-8.327 11.095-10.108 10.247-2.143 17.287-5.479 18.06-8.555 1.178-4.696-.305-19.367-2.34-23.139-1.433-2.659-1.925-5.792-1.94-12.369-.018-8.404.16-9.093 3.878-15.025 2.143-3.42 6.094-8.939 8.78-12.265 4.552-5.64 4.908-6.514 5.265-12.953.414-7.455-2.386-20.66-6.188-29.184-4.29-9.62-3.663-35.68 1.335-55.392C56.63 21.14 66.774 4.993 73.058 6.99c2.083.66 2.215 1.014 9.388 24.968 2.122 7.084 2.404 7.46 8.732 11.62 10.456 6.875 20.047 18.022 29.737 34.562l2.685 4.583 10.202 1.289c17.3 2.185 37.569 10.032 48.636 18.83 2.26 1.796 4.824 3.043 5.7 2.771.875-.271 6.923-2.912 13.439-5.867 14.078-6.386 28.26-11.149 47.558-15.972 20.39-5.097 31.765-7.166 34.969-6.362 2.78.698 2.795.75 2.153 7.662-.73 7.856-5.042 21.461-9.758 30.792-7.232 14.309-25.004 34.001-41.889 46.417-7.607 5.594-7.995 6.08-8.62 10.787-5.233 39.422-15.871 61.176-43.497 88.956-12.946 13.02-13.966 13.798-25.405 19.402-15.592 7.639-23.663 9.76-44.04 11.571-4.036.36-4.494.268-2.072-.413zm-80.394-56.332c-.237-.162-1.364-.978-2.504-1.814-1.917-1.406-1.966-1.384-.65.294.782.997 1.909 1.813 2.504 1.813s.888-.132.65-.293z" fill="#fbc02d"/><path d="M110.978 292.583c1.71-.48 4.857-.93 6.995-.997l3.885-.122-.012-4.922c-.014-5.735-1.856-13.218-5.005-20.336-1.629-3.683-1.805-4.689-.653-3.733 2.945 2.444 2.772.138-.327-4.355-3.607-5.229-8.863-9.64-16.879-14.163-3.158-1.783-6.76-4.412-8.006-5.844-1.368-1.574-3.365-2.604-5.05-2.604-2.702 0-2.656.1 1.548 3.33 2.384 1.832 4.334 3.629 4.334 3.992s-4.08.95-9.067 1.304c-4.987.354-11.865 1.408-15.285 2.342-21.15 5.777-53.825-10.129-53.871-26.223-.017-5.957 2.584-8.327 11.095-10.108 10.282-2.151 17.287-5.478 18.065-8.577 1.24-4.94-.43-20.228-2.787-25.52-1.773-3.983-2.17-6.52-1.862-11.917.432-7.594 3.475-13.515 13.021-25.34 4.553-5.64 4.908-6.514 5.266-12.953.414-7.455-2.386-20.66-6.188-29.184-4.29-9.62-3.663-35.68 1.334-55.392C56.631 21.139 66.773 4.993 73.06 6.989c2.082.66 2.214 1.014 9.387 24.968 2.122 7.084 2.404 7.46 8.731 11.62 10.457 6.875 20.048 18.022 29.738 34.562l2.685 4.583 10.202 1.289c17.3 2.185 37.568 10.032 48.636 18.83 2.26 1.796 4.824 3.043 5.7 2.771.875-.271 6.923-2.912 13.438-5.867 14.079-6.386 28.26-11.149 47.56-15.973 20.388-5.096 31.764-7.165 34.968-6.361 2.78.698 2.795.75 2.153 7.662-.73 7.856-5.042 21.461-9.758 30.792-7.232 14.308-25.004 34.001-41.889 46.417-7.607 5.594-7.995 6.08-8.62 10.787-5.234 39.421-15.871 61.176-43.497 88.956-12.947 13.02-13.966 13.798-25.405 19.402-15.592 7.639-23.664 9.76-44.04 11.571-4.036.359-4.494.268-2.072-.414zm28.487-17.758c15.214-5.867 29.597-17.339 38.77-30.923 10.818-16.02 18.632-40.542 21.438-67.272l1.34-12.765 7.065-6.263c7.63-6.765 16.248-18.903 22.12-31.155 4.508-9.407 4.62-12.62.516-14.742-6.472-3.347-27.43-1.058-46.262 5.051-12.977 4.21-14.76 4.399-19.647 2.08l-3.479-1.651-7.558 5.011c-4.157 2.756-12.657 10.027-18.889 16.158-11.187 11.007-14.057 12.906-14.057 9.305 0-2.563 14.333-18.343 24.633-27.121 6.74-5.745 9.286-7.309 11.917-7.321 2.426-.012 2.933-.276 1.847-.964-.824-.52-3.643-.693-6.266-.382-4.018.475-5.899.003-11.973-3.01-3.963-1.964-12.102-5.629-18.087-8.142-9.855-4.14-11.67-5.351-19.27-12.867-4.615-4.563-11.323-12.727-14.907-18.141-7.62-11.512-9.882-14.176-13.739-16.182-6.708-3.49-11.335 2.037-14.804 17.686-2.13 9.604-1.636 29.433 1.083 43.55 2.508 13.023 1.118 18.643-7.309 29.554-9.286 12.025-10.76 19.669-6.288 32.617 3.344 9.682 4.875 19.774 3.54 23.34-2.335 6.24-12.263 13.47-18.498 13.47-3.036 0-3.192.185-2.565 3.04.793 3.612-2.413 13.54-4.373 13.54-1.97 0-1.581 1.74.909 4.06 3.544 3.302 11.06 6.39 16.815 6.909 4.561.41 4.948.313 2.725-.688a878.626 878.626 0 01-5.699-2.6l-3.108-1.432 4.144.762c6.893 1.266 21.307.708 29.219-1.132 4.102-.953 10.03-1.734 13.172-1.734 10.801 0 24.919 7.328 33.195 17.23 4.184 5.005 10.903 18.998 10.926 22.751.026 4.412.858 4.44 11.402.373zm-5.69-42.91c-34.094-5.986-38.188-6.82-39.715-8.087-2.84-2.357 2.65-2.363 31.777-.035 15.76 1.26 28.935 1.963 29.276 1.563.341-.401 1.119-5.78 1.729-11.953.61-6.174 1.39-11.505 1.732-11.848 1.708-1.708 2.777 2.715 3.803 15.742 1.268 16.084 1.016 16.914-5.358 17.66-1.955.228-12.415-1.14-23.244-3.042zM80.798 202.14c-.838-1.356 2.065-3.717 11.39-9.263 9.722-5.782 21.588-9.93 32.598-11.396 13.41-1.785 17.116.44 6.12 3.676-4.206 1.238-6.001 2.455-8.009 5.428-3.308 4.9-9.59 9.453-14.249 10.327-2.002.375-6.759.094-10.572-.625-6.388-1.206-7.31-1.14-11.76.828-3.247 1.436-5.056 1.772-5.518 1.025zm-18.997-20.248c-4.125-5.852-5.082-11.666-2.814-17.094 1.092-2.615 1.411-5.573 1.015-9.413-.62-6.007.613-8.12 3.393-5.814.85.706 3.21 4.26 5.244 7.896 4.35 7.778 4.958 15.03 2.008 23.912-2.29 6.894-4.267 7.009-8.846.513z" fill="#ff9800"/><path d="M110.978 292.583c1.71-.48 4.857-.93 6.995-.997 2.346-.074 3.89-.635 3.895-1.418.005-.729 5.325-3.066 12.176-5.349 15.389-5.128 25.226-9.651 34.146-15.702 29.01-19.678 47.926-56.351 47.957-92.98.01-10.454.32-10.95 10.845-17.31 8.455-5.11 30.613-27.398 30.613-30.793 0-.537 1.457-3.175 3.237-5.863 3.99-6.025 10.38-23.327 10.995-29.775.435-4.562.324-4.8-2.485-5.337-10.334-1.974-40.272 5.589-66.668 16.842-19.344 8.247-18.663 8.18-28.103 2.792-15.558-8.878-31.567-15.114-45.665-17.789-4.656-.883-8.535-1.716-8.618-1.851-1.217-1.965-13.342-18.004-16.245-21.488-2.137-2.565-7.377-7.673-11.643-11.352-8.3-7.156-11.524-12.045-15.023-22.778-2.646-8.117-4.738-11.48-7.105-11.418-.985.026-3.747 2.287-6.138 5.024-4.88 5.586-7.617 14.008-9.75 30-1.675 12.568-.592 40.068 2.189 55.6 3.129 17.474 1.721 23.613-7.367 32.123l-4.427 4.145 4.343-5.33c6.243-7.662 7.43-10.45 7.435-17.467.003-6.504-3.948-23.124-6.819-28.674-2.285-4.419-3.132-24.549-1.54-36.609 3.76-28.47 16.268-54.565 24.85-51.842 2.083.66 2.215 1.014 9.388 24.968 2.122 7.084 2.404 7.46 8.732 11.62 10.456 6.875 20.047 18.022 29.737 34.563l2.685 4.582 10.16 1.284c17.571 2.219 38.61 10.584 50.487 20.073l2.807 2.242 9.398-4.367c5.169-2.401 13.465-5.935 18.435-7.852 18.979-7.32 63.593-18.102 69.143-16.71 2.87.721 2.873.73 2.227 7.681-.73 7.856-5.041 21.461-9.758 30.793-7.232 14.308-25.004 34-41.888 46.416-7.607 5.594-7.996 6.08-8.62 10.788-5.234 39.42-15.872 61.175-43.497 88.956-12.947 13.019-13.967 13.797-25.406 19.401-15.592 7.64-23.663 9.76-44.04 11.572-4.035.358-4.493.267-2.072-.414zm-65.8-46.306c-8.26-2.214-20.639-8.611-24.89-12.861-7.24-7.241-9.02-15.757-4.205-20.116 1.074-.971 5.017-2.408 8.764-3.191 8.78-1.837 14.799-4.553 19.145-8.638 1.912-1.797 4.127-3.268 4.922-3.268 5.032 0-6.224 11.609-13.063 13.473-2.564.699-5.24 1.434-5.946 1.634-.942.266-1.013 1.076-.266 3.04 1.192 3.136-.807 8.858-4.458 12.759l-2.283 2.437 3.11 2.522c11.044 8.96 23.647 10.677 44.585 6.076 12.895-2.833 13.257-2.856 16.62-1.046 6.163 3.32 5.234 4.346-4.561 5.039-4.938.349-11.543 1.342-14.677 2.207-7.078 1.954-15.352 1.93-22.797-.066zm103.622-13.43c-.854-.191-11.94-2.021-24.634-4.066-24.526-3.953-26.441-4.385-25.582-5.776.576-.932 1.04-.909 34.536 1.675 11.61.895 21.688 1.405 22.398 1.132.84-.322 1.55-4.145 2.032-10.933.72-10.17 2.026-14.001 3.136-9.206.302 1.306.987 7.237 1.522 13.18 1.23 13.66.801 14.622-6.45 14.462-2.973-.066-6.104-.277-6.959-.468zm-62.842-35.035c9.796-8.935 32.92-17.021 46.583-16.29 2.633.141 1.298 1.805-2.124 2.647-1.573.387-5.687 3.662-9.143 7.277-7.84 8.202-11.971 9.648-21.914 7.672-5.394-1.073-7.266-1.071-9.948.007-6.85 2.753-7.6 2.468-3.454-1.313zm-23.513-17.967c-4.162-6.559-4.618-9.794-2.197-15.588 1.149-2.75 1.404-5.397.904-9.395-.626-5.014-.509-5.53 1.183-5.204 1.033.2 3.52 3.16 5.528 6.578 4.575 7.795 5.447 15.96 2.534 23.746-1.048 2.803-2.411 5.264-3.03 5.47-.619.206-2.834-2.317-4.922-5.607zm59.413-32.9c0-2.015 12.835-16.484 20.322-22.908 9.177-7.876 12.005-9.769 14.593-9.769 4.218 0 2.596 2.78-4.605 7.892-3.847 2.73-11.858 9.766-17.803 15.635-5.944 5.868-11.19 10.669-11.657 10.669s-.85-.684-.85-1.52z" fill="#263238"/></svg>