<svg viewBox="0 0 24 24" xmlns="http://www.w3.org/2000/svg"><path class="cls-1" fill="#0288d1" d="M2.561 6.552V17.45L12 22.898v-2.191l-7.564-4.333V7.637l.003-.002z"/><path class="cls-1" fill="#0288d1" d="M6.34 8.733l-.003.002v6.537l5.662 3.244V12z"/><path class="cls-2" fill="#29b6f6" d="M12 1.102L2.56 6.552l1.877 1.083L12 3.272l7.567 4.36 1.872-1.079v.001z"/><path class="cls-2" fill="#29b6f6" d="M12 5.467L6.34 8.733 12 12.001l5.663-3.27z"/><path class="cls-3" fill="#0092cf" d="M12 12v.002zM17.664 8.731l-5.665 3.27zM19.567 7.634l1.87-1.08-1.871 1.079z"/><path class="cls-4" fill="#e8bfd8" d="M19.567 7.634l-.001-.001-1.903 1.098h.001z"/><path class="cls-3" fill="#039be5" d="M21.438 17.451V6.554l-1.871 1.08-1.903 1.097L12 12.001V18.517l5.67-3.245v-2.163l-3.804 2.164v-2.188l5.705-3.247v6.537L12 20.707v2.191z"/></svg>