<svg viewBox="0 0 300 300" xmlns="http://www.w3.org/2000/svg"><style>.st4{fill:#00acd7}</style><g fill="#00acc1"><path class="st4" d="M22.734 138.395c-.584 0-.73-.292-.438-.73l3.065-3.94c.292-.438 1.022-.73 1.605-.73h52.105c.583 0 .73.438.437.876l-2.48 3.795c-.293.437-1.022.875-1.46.875zM.695 151.823c-.583 0-.73-.292-.437-.73l3.065-3.94c.291-.439 1.021-.73 1.605-.73h66.553c.584 0 .876.437.73.875l-1.168 3.503c-.146.584-.73.876-1.313.876zM36.015 165.25c-.583 0-.73-.438-.438-.876l2.044-3.648c.292-.438.876-.876 1.46-.876h29.19c.583 0 .875.438.875 1.022l-.292 3.502c0 .584-.584 1.022-1.022 1.022z"/><g transform="translate(-35.938 -9.16) scale(1.4595)"><g id="CXHf1q_3_" fill="#00acc1"><path class="st4" d="M153.1 99.3c-6.3 1.6-10.6 2.8-16.8 4.4-1.5.4-1.6.5-2.9-1-1.5-1.7-2.6-2.8-4.7-3.8-6.3-3.1-12.4-2.2-18.1 1.5-6.8 4.4-10.3 10.9-10.2 19 .1 8 5.6 14.6 13.5 15.7 6.8.9 12.5-1.5 17-6.6.9-1.1 1.7-2.3 2.7-3.7h-19.3c-2.1 0-2.6-1.3-1.9-3 1.3-3.1 3.7-8.3 5.1-10.9.3-.6 1-1.6 2.5-1.6h36.4c-.2 2.7-.2 5.4-.6 8.1-1.1 7.2-3.8 13.8-8.2 19.6-7.2 9.5-16.6 15.4-28.5 17-9.8 1.3-18.9-.6-26.9-6.6-7.4-5.6-11.6-13-12.7-22.2-1.3-10.9 1.9-20.7 8.5-29.3 7.1-9.3 16.5-15.2 28-17.3 9.4-1.7 18.4-.6 26.5 4.9 5.3 3.5 9.1 8.3 11.6 14.1.6.9.2 1.4-1 1.7z"/><path class="st4" d="M186.2 154.6c-9.1-.2-17.4-2.8-24.4-8.8-5.9-5.1-9.6-11.6-10.8-19.3-1.8-11.3 1.3-21.3 8.1-30.2 7.3-9.6 16.1-14.6 28-16.7 10.2-1.8 19.8-.8 28.5 5.1 7.9 5.4 12.8 12.7 14.1 22.3 1.7 13.5-2.2 24.5-11.5 33.9-6.6 6.7-14.7 10.9-24 12.8-2.7.5-5.4.6-8 .9zm23.8-40.4c-.1-1.3-.1-2.3-.3-3.3-1.8-9.9-10.9-15.5-20.4-13.3-9.3 2.1-15.3 8-17.5 17.4-1.8 7.8 2 15.7 9.2 18.9 5.5 2.4 11 2.1 16.3-.6 7.9-4.1 12.2-10.5 12.7-19.1z"/></g></g></g></svg>