<svg viewBox="0 0 300 300" xmlns="http://www.w3.org/2000/svg"><g fill="#4fc3f7"><path d="M124.488 31.726c-11.459 2.548-22.794 6.094-33.42 11.443.243 9.384.85 18.375 2.08 27.509-4.128 2.644-8.465 4.913-12.32 8.008-3.917 3.013-7.917 5.896-11.463 9.42-7.085-4.686-14.584-9.09-22.31-12.977-8.327 8.961-16.113 18.634-22.474 29.457 4.786 7.741 9.781 14.997 15.175 21.883h.151v66.432c.122 0 .243.005.363.017l40.727 3.926a4.385 4.385 0 013.953 4.061l1.256 17.978 35.526 2.535 2.447-16.593a4.385 4.385 0 014.339-3.746h42.967a4.385 4.385 0 014.337 3.746l2.448 16.593 35.525-2.535 1.255-17.978a4.387 4.387 0 013.954-4.06l40.71-3.927c.12-.012.24-.016.362-.017V187.6l.017-.005v-61.123h.15c5.396-6.886 10.388-14.142 15.176-21.883-6.359-10.824-14.15-20.497-22.476-29.458-7.723 3.888-15.225 8.291-22.31 12.978-3.545-3.524-7.539-6.407-11.46-9.42-3.855-3.095-8.197-5.365-12.316-8.009 1.226-9.133 1.832-18.124 2.077-27.508-10.629-5.35-21.962-8.896-33.426-11.443-4.577 7.693-8.763 16.023-12.408 24.167-4.323-.722-8.666-.99-13.015-1.042v-.007c-.03 0-.058.007-.084.007-.027 0-.055-.007-.082-.007v.007c-4.357.052-8.696.32-13.02 1.042-3.644-8.144-7.827-16.474-12.41-24.167zm-32.22 97.179c13.556 0 24.543 10.978 24.543 24.53 0 13.56-10.987 24.546-24.543 24.546-13.55 0-24.54-10.986-24.54-24.546 0-13.551 10.99-24.53 24.54-24.53zm115.467 0c13.548 0 24.537 10.978 24.537 24.53 0 13.56-10.99 24.546-24.537 24.546-13.558 0-24.546-10.986-24.546-24.546 0-13.551 10.987-24.53 24.546-24.53zm-57.736 14.355c4.363 0 7.907 3.219 7.907 7.18v22.594c0 3.964-3.544 7.18-7.907 7.18s-7.9-3.217-7.9-7.18v-22.595c0-3.96 3.536-7.179 7.9-7.179z"/><path d="M223.539 205.218l-1.261 18.074a4.387 4.387 0 01-4.063 4.068l-43.38 3.095a4.386 4.386 0 01-4.65-3.735l-2.488-16.87H132.3l-2.488 16.87a4.383 4.383 0 01-4.65 3.736l-43.38-3.096a4.386 4.386 0 01-4.064-4.068l-1.26-18.073-36.621-3.531c.017 3.936.067 8.247.067 9.106 0 38.677 49.063 57.266 110.018 57.48h.15c60.955-.215 110-18.805 110-57.48 0-.874.054-5.168.072-9.106z"/></g></svg>