<svg viewBox="0 0 210 210" xmlns="http://www.w3.org/2000/svg"><path fill="#f68712" stroke-width=".221" d="M41.559 104.988l63.43-63.43 63.432 63.43-63.431 63.431z"/><path d="M41.578 105.037L29.973 61.726 18.368 18.415l43.31 11.605 43.312 11.605-31.706 31.706z" fill="#fab20b" stroke-width=".266"/><path d="M104.735 41.555L61.545 30.01 18.367 18.413l22.927.185 23.228.294 20.263 11.36z" fill="#fbc707" stroke-width=".265"/><path d="M18.368 18.417l11.597 43.177 11.544 43.19-11.303-19.948-11.36-20.263-.294-23.229z" fill="#fff200" stroke-width=".265"/><path d="M104.999 41.579l43.31-11.605 43.312-11.605-11.605 43.311-11.605 43.311-31.706-31.706z" fill="#f47216" stroke-width=".266"/><path d="M168.49 104.735l11.545-43.19 11.598-43.177-.185 22.927-.294 23.228-11.36 20.264z" fill="#f1471d" stroke-width=".265"/><path d="M191.628 18.365l-43.176 11.597-43.19 11.544 19.948-11.303 20.263-11.36 23.228-.293z" fill="#fbc707" stroke-width=".265"/><path d="M168.419 104.987l11.605 43.311 11.605 43.311-43.311-11.605-43.311-11.605 31.706-31.706z" fill="#f25c19" stroke-width=".266"/><path d="M105.261 168.47l43.19 11.544 43.177 11.597-22.927-.185-23.229-.294-20.263-11.36z" fill="#f68712" stroke-width=".265"/><path d="M191.631 191.617l-11.597-43.177-11.545-43.19 11.304 19.948 11.36 20.263.293 23.229z" fill="#f1471d" stroke-width=".265"/><path d="M104.99 168.422l-43.31 11.605-43.311 11.605 11.605-43.311 11.605-43.311 31.706 31.706z" fill="#f89c0e" stroke-width=".266"/><path d="M41.51 105.27l-11.545 43.19-11.597 43.176.185-22.927.294-23.228 11.36-20.264z" fill="#fff200" stroke-width=".265"/><path d="M18.368 191.63l43.176-11.598 43.19-11.544-19.947 11.303-20.264 11.36-23.228.293z" fill="#f25c19" stroke-width=".265"/></svg>