<svg width="300" height="300" data-name="Layer 1" viewBox="0 0 300 300" xmlns="http://www.w3.org/2000/svg"><defs><style></style></defs><path d="M148.014 286.552c-1.985-1.375-4.333-5.94-5.67-11.018-1.19-4.52-1.641-16.43-.844-22.273.296-2.173.465-4.024.374-4.115-.09-.09-1.937-.378-4.103-.64-12.48-1.504-25.802-5.746-35.943-11.446-2.151-1.209-4.166-2.198-4.477-2.198-.312 0-1.407 1.619-2.435 3.598-4.778 9.199-13.123 18.333-19.466 21.307-2.316 1.085-5.401 1.35-6.829.584-2.152-1.153-2.79-5.72-1.504-10.777.88-3.463 4.417-10.748 7.285-15.006 1.267-1.88 3.768-5.068 5.56-7.085l3.257-3.667-1.698-1.622c-4.474-4.275-12.876-14.162-12.876-15.152 0-.355 11.464-8.318 12.299-8.544.425-.115 1.452.902 2.842 2.812 3.013 4.142 11.068 12.107 15.807 15.63 36.132 26.861 87.06 20.114 114.48-15.165 1.457-1.875 2.876-3.408 3.153-3.408.55 0 11.895 7.692 12.29 8.332.354.573-4.605 7-8.841 11.459-2.01 2.116-3.654 4.02-3.651 4.23.002.21 1.582 2.045 3.51 4.078 6.12 6.453 12.144 16.527 13.817 23.109 1.285 5.056.647 9.623-1.505 10.777-.464.249-1.697.45-2.739.448-6.594-.015-17.531-10.606-24.023-23.262-1.25-2.44-2.459-4.435-2.685-4.435s-1.5.698-2.83 1.55c-9.43 6.043-23.51 11.256-35.69 13.214-2.59.416-4.922.921-5.183 1.123-.337.26-.293 1.48.15 4.221.791 4.89.486 16.503-.557 21.199-1.077 4.847-2.73 8.604-4.77 10.834-2.343 2.564-4.166 2.93-6.506 1.309zm-129.646-98.84c-.117-.307-.162-16.388-.1-35.734l.114-35.176H36.82l.116 12.95c.088 9.687.253 13.035.659 13.293.298.19 4.913.348 10.255.352 7.567.005 9.821-.123 10.2-.58.324-.391.524-4.817.602-13.3l.117-12.715h18.436v71.231H58.768l-.117-13.593c-.078-9.135-.275-13.786-.602-14.18-.379-.458-2.645-.588-10.256-.588s-9.877.13-10.256.587c-.326.395-.524 5.046-.602 14.18l-.116 13.594-9.12.119c-7.056.092-9.167-.008-9.331-.44zm74.624-.005c-.116-.304-.16-16.383-.098-35.73l.114-35.176h45.654l.12 7.798.12 7.799-13.509.116-13.508.116-.125 5.242c-.092 3.897.02 5.333.44 5.6.309.196 5.555.36 11.657.364l11.094.007-.12 7.804-.12 7.805-11.413.22-11.413.22v12.311l14.047.22 14.047.22v15.39l-23.388.113c-18.476.09-23.431-.002-23.598-.44zm61.457 0c-.116-.304-.16-16.383-.098-35.73l.114-35.176H172.9l.22 27.701.22 27.701 13.388.22 13.389.22v15.39l-22.728.113c-17.95.09-22.775-.002-22.94-.44zm58.38-.004c-.114-.302-.158-16.379-.095-35.725l.113-35.176 9.658-.108c5.311-.06 9.875.04 10.142.22.65.44 10.4 26.995 12.55 34.184 2.238 7.48 2.064 7.037 2.57 6.53.238-.238 1.276-3.19 2.308-6.56 2.272-7.425 11.261-33.166 11.854-33.944.325-.428 2.692-.53 10.13-.44l9.707.118v71.232l-8.22.12-8.22.119-.291-1.163c-.606-2.417.207-27.864 1.122-35.132 1.44-11.438 1.22-11.615-2.173-1.76-3.67 10.659-10.968 30.256-11.665 31.33-.598.92-.957.989-5.188.989-3.115 0-4.68-.173-4.974-.55-.544-.696-9.505-25.085-11.954-32.533-1.728-5.254-2.668-7.147-2.637-5.307.008.437.411 4.06.897 8.05.909 7.474 1.712 32.53 1.118 34.9l-.289 1.155h-8.127c-6.096 0-8.178-.138-8.335-.55zm5.808-81.212c-1.73-2.933-6.08-8.407-9.761-12.28-11.855-12.478-26.132-20.364-43.658-24.118-5.018-1.075-6.35-1.177-15.584-1.198-10.871-.023-13.265.247-21.685 2.452-11.398 2.985-21.79 8.282-30.992 15.796-4.424 3.613-11.47 11.044-14.48 15.271-1.855 2.604-2.788 3.568-3.276 3.382-1.6-.608-12.313-7.81-12.307-8.273.015-1.041 7.231-10.092 12.128-15.21l5.065-5.296-3.35-3.632c-6.12-6.637-11.988-16.528-13.623-22.961-1.285-5.057-.647-9.624 1.505-10.778.464-.249 1.697-.45 2.739-.448 6.594.015 17.532 10.606 24.023 23.262 1.25 2.44 2.429 4.435 2.619 4.435.19 0 1.905-.891 3.812-1.98 9.804-5.596 25.544-10.583 36.26-11.487 1.85-.156 3.595-.427 3.878-.603.389-.24.332-1.42-.234-4.808-1.042-6.244-.719-18.472.623-23.552 2.126-8.051 5.54-12.561 9.016-11.908 3.241.61 6.385 5.9 8.021 13.498 1.067 4.959 1.095 18.905.047 23.473-.389 1.693-.577 3.214-.419 3.38.158.167 2.263.614 4.677.994 13.99 2.201 24.6 6.105 37.603 13.839.884.525 1.717.779 1.85.563s1.332-2.574 2.665-5.24c5.145-10.294 13.427-19.648 20.216-22.832 2.316-1.085 5.401-1.35 6.829-.584 2.152 1.153 2.79 5.72 1.504 10.777-.938 3.692-4.548 10.983-7.782 15.72-1.51 2.211-4.577 5.871-6.815 8.133l-4.068 4.113 4.003 4.255c4.046 4.302 11.193 13.426 12.502 15.96.592 1.147.612 1.467.122 1.919-1.004.925-11.798 7.263-12.37 7.263-.297 0-.884-.584-1.304-1.297z" fill="#00acc1" stroke-width=".2"/></svg>