<svg width="300" height="300" viewBox="0 0 300 300" xmlns="http://www.w3.org/2000/svg"><g fill="#f4511e"><path d="M194.74 86.602l-17 34.327c5.585 5.174 9.527 11.99 11.087 19.71h12.812a36.827 36.827 0 0110.265-18.97z"/><path d="M163.451 112.635l31.29-63.236 31.207 63.646c1.231-.41 2.463-.739 3.695-1.067l29.647-87.462H130.109l29.564 87.215c1.232.247 2.546.575 3.778.904zM152.693 168.561c11.415 0 20.695-9.28 20.695-20.695 0-4.188-1.232-8.048-3.367-11.333-.657-1.068-1.478-2.053-2.3-2.957l-.082-.082a15.323 15.323 0 00-2.792-2.381l-.082-.082c-.246-.165-.575-.411-.903-.575-.082 0-.082-.082-.164-.082-.329-.165-.657-.411-.986-.575h-.082c-.329-.164-.74-.41-1.068-.575h-.082c-.328-.164-.657-.329-.985-.41-.082 0-.165-.083-.247-.083-.246-.082-.575-.246-.82-.328-.083 0-.165-.082-.33-.082-.328-.083-.656-.247-.985-.329h-.082c-.41-.082-.74-.164-1.15-.246-.082 0-.164 0-.328-.082-.329-.083-.575-.083-.904-.165-.164 0-.246 0-.41-.082-.247 0-.575-.082-.821-.082h-3.203c-.329 0-.575.082-.904.082h-.328c-.329.082-.657.082-.986.164h-.246c-.41.083-.74.165-1.15.247-9.033 2.217-15.768 10.43-15.768 20.12.165 11.251 9.445 20.613 20.86 20.613zM239.744 127.17h-.164c-.328 0-.575-.081-.903-.081h-1.068c-.41 0-.821 0-1.314.082h-.41c-.329 0-.657.082-.986.082-.082 0-.246 0-.328.082l-1.232.246h-.082c-.411.083-.74.165-1.15.247-.082 0-.247.082-.329.082-.328.082-.657.164-.985.328-.082 0-.164.083-.247.083-.41.164-.82.328-1.15.492-.41.165-.738.329-1.149.493-.082 0-.164.082-.246.082-.329.164-.657.329-.986.575 0 0-.082 0-.082.082a12.4 12.4 0 00-2.135 1.478l-.082.082c-1.068.822-1.971 1.725-2.875 2.71s-1.642 2.136-2.3 3.286a20.815 20.815 0 00-2.71 10.265c0 11.415 9.28 20.695 20.696 20.695s20.695-9.28 20.695-20.695c0-10.02-7.227-18.478-16.67-20.367-.494-.164-1.15-.246-1.808-.328zM66.873 168.561c11.416 0 20.696-9.28 20.696-20.695s-9.28-20.695-20.696-20.695-20.695 9.28-20.695 20.695 9.28 20.695 20.695 20.695z"/><path d="M237.691 184.575c-17.082 0-31.453-11.743-35.56-27.511h-13.796c-4.106 15.768-18.478 27.511-35.56 27.511-1.97 0-3.86-.164-5.667-.41-4.763 7.309-10.43 14.043-17.081 20.284-11.744 11.087-25.048 19.3-39.42 24.473l-3.367 1.232-3.12-1.642c-17.247-8.87-26.116-26.855-22.995-44.265a31.88 31.88 0 01-5.667-1.478c-.328.575-.575 1.232-.903 1.889-5.256 10.84-10.758 22.009-12.73 33.999-2.135 12.811-3.038 36.217 15.03 48.7 7.883 5.42 16.178 8.13 25.458 8.13 17.82 0 37.038-9.527 57.404-19.628 15.932-7.884 32.357-16.096 49.439-20.285 6.488-1.56 13.058-2.545 19.381-3.449 11.58-1.642 22.584-3.285 31.536-8.459 9.526-5.502 16.014-14.7 17.82-25.212 1.15-6.405.494-12.893-1.642-18.888-5.42 3.12-11.743 5.01-18.56 5.01z"/></g></svg>