<svg viewBox="0 0 300 300" xmlns="http://www.w3.org/2000/svg"><path d="M172.381 24.41c-1.792 0-3.5.426-5.036.938 3.33 2.22 5.122 5.121 6.06 8.45.086.427.171.768.257 1.195s.17.768.17 1.195c.256 5.719-1.536 6.401-2.731 9.815-1.878 4.353-1.366 9.048.939 12.803.17.427.427.94.768 1.451-2.475-16.473 11.266-18.948 13.827-24.07.17-4.523-3.5-7.51-6.401-9.558-2.988-1.708-5.548-2.22-7.853-2.22zm20.655 3.67c-.256 1.536-.085 1.11-.17 1.877-.086.512-.086 1.195-.171 1.707-.17.512-.256 1.024-.427 1.537l-.512 1.536c-.256.512-.427.939-.683 1.536l-.512.768c-.17.171-.256.427-.427.598-.34.427-.682.939-.938 1.28-.427.427-.683.854-1.195 1.195v.085c-.427.342-.769.683-1.195 1.025-1.366 1.024-2.902 1.792-4.353 2.816-.427.342-.94.598-1.28.94-.427.34-.854.682-1.195 1.023l-1.195 1.195c-.342.427-.683.854-.94 1.28-.34.427-.682.94-.938 1.366-.256.512-.427.94-.683 1.537-.17.512-.427.938-.512 1.536-.17.597-.341 1.11-.427 1.622-.085.256-.085.597-.17.853s-.086.512-.171.768c0 .512-.086 1.11-.086 1.622 0 .427 0 .768.086 1.195 0 .512.085 1.024.17 1.622.086.512.171 1.024.342 1.536l.512 1.536c.17.342.341.683.427.94l-14.937-5.805c-2.56-.683-5.036-1.365-7.51-1.963-1.366-.341-2.732-.683-4.098-.939a137.047 137.047 0 00-11.864-1.792c-.17 0-.17-.086-.341-.086-3.926-.426-7.767-.597-11.608-.597-2.902 0-5.718.17-8.535.341-3.926.256-7.938.769-11.864 1.451-.939.171-1.963.342-2.902.513-2.048.426-3.926.853-5.89 1.28-.938.256-1.962.512-2.901.768-.94.427-1.878.854-2.817 1.195a23.2 23.2 0 01-2.134.939c-.17.085-.256.085-.341.17a34.44 34.44 0 00-1.792.94c-.171.085-.342.17-.427.17-.683.341-1.451.683-2.049 1.024-.426.171-.939.427-1.28.683-.17.17-.427.256-.597.342-.598.34-1.195.682-1.707.938-.598.342-1.11.683-1.537.94-.427.34-.939.597-1.28.938-.085.085-.17.085-.17.17a6.445 6.445 0 00-1.196.94l-.17.17c-.342.256-.683.513-.94.769-.17.085-.255.17-.426.256-.341.256-.683.597-.939.853-.085.17-.17.17-.256.256-.427.427-.768.683-1.195 1.11-.085 0-.085.085-.17.17-.427.342-.769.683-1.196 1.11-.085.085-.085.17-.17.17-.342.342-.683.684-.94 1.025-.17.17-.34.256-.426.427-.341.427-.683.768-1.11 1.195-.085.17-.17.17-.255.341-.513.512-.94 1.024-1.537 1.536l-.17.171c-1.025 1.11-2.134 2.22-3.33 3.158-1.194 1.024-2.39 2.049-3.67 2.902-1.28.939-2.56 1.707-3.926 2.475-1.28.683-2.645 1.366-4.096 1.963a36.218 36.218 0 01-4.268 1.537c-2.731.597-5.548 1.707-7.938 1.878-.512 0-1.11.17-1.622.17-.597.17-1.11.256-1.621.427s-1.024.427-1.537.597-1.024.427-1.536.683c-.427.342-.939.598-1.45.94-.428.34-.94.682-1.281 1.109-.427.341-.939.768-1.28 1.195-.427.426-.769.853-1.11 1.28-.341.512-.683.939-.939 1.536-.341.427-.683.94-.939 1.537s-.512 1.11-.683 1.707c-.17.512-.426 1.11-.597 1.707-.17.512-.256 1.024-.341 1.536 0 .085-.086.17-.086.17-.17.598-.17 1.366-.17 1.793-.086.427-.171.854-.171 1.28 0 .256 0 .598.085.854.086.427.17.853.256 1.195.17.427.256.768.427 1.195v.085c.17.427.427.768.683 1.195s.512.768.853 1.195c.342.341.683.683 1.11 1.024.427.427.768.683 1.195 1.024 1.536 1.366 1.963 1.793 3.926 2.902l1.024.512c.086 0 .171.086.171.086 0 .17 0 .17.085.341.086.512.171 1.024.342 1.537.17.597.341 1.11.512 1.536s.341.768.512 1.195c.085.17.17.256.17.341.257.512.513.94.769 1.451.341.427.683.94.939 1.366.341.427.682.853 1.11 1.195.426.427.767.683 1.194 1.11 0 0 .086.085.17.085.428.341.77.683 1.196.939.427.341.939.597 1.45.853.428.256.94.512 1.537.683.427.17.854.341 1.28.427.086.085.171.085.256.17.257.086.598.171.854.171-.17 3.5-.256 6.828.256 8.023.598 1.28 3.414-2.646 6.316-7.255-.427 4.524-.683 9.73 0 11.352s4.61-3.414 8.023-9.047c46.09-10.67 88.169 21.167 92.607 66.233-.853-6.999-9.474-10.925-13.486-9.986-1.963 4.78-5.291 11.01-10.583 14.851.427-4.268.256-8.706-.683-12.974-1.451 5.975-4.268 11.608-8.023 16.388-6.145.427-12.376-2.56-15.62-6.999-.256-.17-.34-.597-.512-.853-.17-.427-.426-.94-.512-1.366-.17-.427-.341-.939-.426-1.366s-.086-.938-.086-1.45v-.94c.086-.426.17-.938.342-1.365s.256-.939.426-1.366c.256-.426.427-.939.769-1.365 1.11-3.158 1.11-5.634-.94-7.17-.426-.256-.768-.427-1.194-.683-.256-.085-.598-.17-.854-.256-.17-.085-.341-.17-.512-.17-.427-.171-.939-.257-1.366-.342-.426-.17-.938-.17-1.365-.17-.427-.086-.939-.171-1.451-.171-.342 0-.683.085-.939.085-.512 0-.939.085-1.451.17-.427.086-.939.171-1.366.257-.426.17-.939.256-1.365.427s-.854.426-1.28.597-.769.427-1.195.683c-15.193 9.9-6.146 33.031 4.267 39.689-3.926.682-7.852 1.536-8.962 2.39l-.17.17a56.134 56.134 0 008.79 4.353c4.183 1.366 8.621 2.56 10.499 3.158v.085c5.377 1.11 10.84 1.537 16.388 1.195 28.763-2.048 52.406-23.898 56.673-52.833.171.598.256 1.11.427 1.708.17 1.194.427 2.39.598 3.67v.085c.17.597.17 1.195.256 1.707v.256c.085.598.17 1.195.17 1.707.086.683.171 1.451.171 2.134v1.024c0 .342.085.683.085 1.024 0 .427-.085.769-.085 1.195v.94c0 .426-.085.853-.085 1.28 0 .256 0 .512-.086.853 0 .427-.085.939-.085 1.451-.085.17-.085.427-.085.597-.086.513-.171.94-.171 1.537 0 .17 0 .427-.085.597-.086.683-.171 1.195-.257 1.878v.17c-.17.598-.256 1.196-.426 1.793v.17c-.171.598-.256 1.196-.427 1.793 0 .086-.085.17-.085.256-.171.598-.256 1.195-.427 1.793v.17c-.17.683-.427 1.195-.512 1.793-.086.085-.086.17-.086.17-.17.683-.426 1.28-.597 1.964-.256.682-.427 1.194-.683 1.877s-.427 1.28-.683 1.878c-.256.683-.512 1.195-.768 1.878h-.085c-.256.597-.512 1.195-.854 1.792-.085.17-.17.342-.17.427-.086.085-.086.17-.171.17-4.268 8.536-10.498 15.961-18.265 21.85-.513.342-1.025.684-1.537 1.11-.17.171-.341.171-.427.342a8.457 8.457 0 01-1.45.939l.17.426h.085c.94-.17 1.793-.256 2.732-.426h.085c1.707-.256 3.414-.598 5.036-.94.427-.085.939-.17 1.45-.34.342-.086.598-.171.94-.171.426-.086.939-.171 1.365-.256.427-.171.769-.171 1.195-.342 6.487-1.536 12.803-3.67 18.863-6.23-10.328 14.082-24.155 25.52-40.371 32.945a108.846 108.846 0 0022.191-3.84c26.203-7.768 48.224-25.35 61.454-49.078-2.646 15.022-8.621 29.361-17.498 41.823 6.316-4.183 12.12-8.962 17.327-14.425 14.595-15.193 24.154-34.568 27.398-55.308 2.219 10.242 2.902 20.911 1.878 31.324 46.943-65.465 3.926-133.405-14.084-151.244-.085-.17-.17-.17-.17-.341-.086.085-.086.085-.086.17 0-.085 0-.085-.085-.17 0 .768-.085 1.536-.17 2.304-.171 1.537-.427 2.902-.683 4.353-.342 1.451-.683 2.902-1.11 4.268s-.939 2.817-1.536 4.182c-.598 1.28-1.195 2.646-1.963 3.926a53.222 53.222 0 01-2.305 3.67c-.853 1.196-1.792 2.39-2.646 3.5-.939 1.195-2.048 2.22-3.073 3.243-.682.598-1.194 1.11-1.877 1.622-.512.427-.94.854-1.537 1.28-1.195.94-2.304 1.793-3.67 2.56-1.195.77-2.56 1.537-3.84 2.22-1.366.683-2.732 1.195-4.097 1.792-1.366.513-2.817.94-4.268 1.366s-2.902.683-4.353.939a41.655 41.655 0 01-4.438.512c-1.025.085-2.049.17-3.158.17-1.537 0-2.988-.17-4.439-.255-1.536-.171-2.987-.342-4.438-.683-1.536-.256-2.902-.683-4.353-1.11h-.085c1.45-.17 2.902-.256 4.267-.512 1.537-.256 2.902-.597 4.353-.939 1.451-.426 2.902-.853 4.268-1.365 1.45-.512 2.816-1.195 4.097-1.793 1.365-.682 2.56-1.365 3.926-2.133 1.195-.854 2.475-1.707 3.67-2.561 1.195-.939 2.305-1.878 3.329-2.902 1.11-.939 2.048-2.048 3.073-3.158.938-1.195 1.877-2.305 2.73-3.5.171-.17.257-.426.428-.682a38.484 38.484 0 001.877-3.158c.683-1.28 1.366-2.56 1.963-3.926s1.11-2.732 1.537-4.183c.426-1.365.768-2.816 1.11-4.267.255-1.537.511-2.902.682-4.353.17-1.537.256-2.988.256-4.439 0-1.024-.085-2.048-.17-3.158-.171-1.536-.342-2.902-.513-4.353-.256-1.536-.597-2.902-.939-4.352-.426-1.366-.938-2.817-1.45-4.183s-1.195-2.731-1.793-4.011c-.683-1.28-1.45-2.56-2.22-3.841l-2.56-3.585c-.938-1.11-1.963-2.22-2.987-3.329-.512-.512-1.11-1.11-1.707-1.621-2.902-2.305-5.975-4.439-9.047-6.402-.427-.256-.854-.426-1.28-.683-2.049-1.536-4.012-2.219-6.06-2.902z" fill="#ec407a"/></svg>