<svg width="300" height="300" version="1.2" viewBox="0 0 225 225" xmlns="http://www.w3.org/2000/svg"><defs><linearGradient id="b" x1="-.348" x2="1.251" gradientTransform="rotate(116.114 53.098 202.97) scale(86.48)" gradientUnits="userSpaceOnUse"><stop stop-color="#3E863D" offset=".3"/><stop stop-color="#55934F" offset=".5"/><stop stop-color="#5AAD45" offset=".8"/></linearGradient><linearGradient id="d" x1="-.456" x2=".582" gradientTransform="matrix(106.81 -78.917 78.917 106.81 235.19 285.39)" gradientUnits="userSpaceOnUse"><stop stop-color="#3E863D" offset=".57"/><stop stop-color="#619857" offset=".72"/><stop stop-color="#76AC64" offset="1"/></linearGradient><linearGradient id="f" x1=".043" x2=".984" gradientTransform="translate(192.86 279.65) scale(97.417)" gradientUnits="userSpaceOnUse"><stop stop-color="#6BBF47" offset=".16"/><stop stop-color="#79B461" offset=".38"/><stop stop-color="#75AC64" offset=".47"/><stop stop-color="#659E5A" offset=".7"/><stop stop-color="#3E863D" offset=".9"/></linearGradient><clipPath id="a"><path d="M239.03 226.6l-42.13 24.317a5.085 5.085 0 00-2.546 4.406v48.668c0 1.817.968 3.496 2.546 4.406l42.133 24.336a5.1 5.1 0 005.09 0l42.126-24.336a5.096 5.096 0 002.54-4.406v-48.668c0-1.816-.97-3.496-2.55-4.406l-42.12-24.317a5.123 5.123 0 00-5.1 0"/></clipPath><clipPath id="c"><path d="M195.4 307.09c.403.523.907.976 1.5 1.316l36.14 20.875 6.02 3.46c.9.52 1.926.74 2.934.665.336-.027.672-.09 1-.183l44.434-81.36c-.34-.37-.738-.68-1.184-.94l-27.586-15.93-14.582-8.39a5.318 5.318 0 00-1.32-.53z"/></clipPath><clipPath id="e"><path d="M241.07 225.95a5.14 5.14 0 00-2.035.652l-42.01 24.247 45.3 82.51c.63-.09 1.25-.3 1.81-.624l42.13-24.336a5.105 5.105 0 002.46-3.476l-46.18-78.89a5.29 5.29 0 00-1.03-.102c-.14 0-.28.007-.42.02"/></clipPath></defs><g clip-path="url(#a)" transform="translate(-325.151 -394.171) scale(1.8117)"><path d="M331.36 246.79L212.64 188.6l-60.87 124.17 118.71 58.193z" fill="url(#b)"/></g><g clip-path="url(#c)" transform="translate(-325.151 -394.171) scale(1.8117)"><path d="M144.07 264l83.825 113.45 110.86-81.906-83.83-113.45z" fill="url(#d)"/></g><g clip-path="url(#e)" transform="translate(-325.151 -394.171) scale(1.8117)"><path d="M197.02 225.93v107.43h91.683V225.93z" fill="url(#f)"/></g></svg>