<svg width="300" height="300" viewBox="0 0 79 78" xmlns="http://www.w3.org/2000/svg"><g fill="#e53935" fill-rule="evenodd" stroke="#e53935" stroke-width="1.519"><path d="M18.612 33.522c.09.069.247.113.09.248-.113.157-.247.292-.337.473-.09.158-.157.202-.292.09.18-.293.358-.564.538-.811zm45.185 23.592c0 .067.022.111.022.18.046-.09.046-.135.069-.18zm0 .202v-.022zm-4.585 8.78l-3.913-21.7c-.066-.022-.156-.066-.314-.112.045.09.068.158.09.225.111-.022.158-.022.202-.044 0-.023 0-.045.023-.069l3.912 21.702zM55.165 39.51c-.022.066-.022.135-.022.202 0-.068 0-.136.024-.203zm.022.45c-.022 0-.022 0-.044-.025v.022c.024.023.024.023.046 0zm-.044.179v-.159c-.066.023-.133.023-.224.046.113.042.226.066.226.11z" stroke-width="1.2976057499999998"/><path d="M72.654 34.67c-.044-.878-.067-1.756-.157-2.633-.157-1.193-.314-2.409-.584-3.58-.203-.967-.539-1.89-.877-2.813-.427-1.08-.854-2.184-1.394-3.22-.876-1.665-2.023-3.151-3.08-4.704-.698-.991-1.597-1.801-2.272-2.814-.382-.585-.944-1.08-1.506-1.53-.9-.721-1.843-1.375-2.787-2.004a27.784 27.784 0 00-2.204-1.396c-.607-.34-1.259-.61-1.888-.902-.72-.338-1.417-.743-2.225-.9-.204-.043-.383-.112-.586-.18-.516-.18-1.011-.382-1.529-.54-.786-.248-1.55-.54-2.36-.743-.784-.202-1.594-.337-2.404-.45-.899-.133-1.82-.18-2.72-.268a22.92 22.92 0 00-1.73-.157c-.855-.045-1.731-.045-2.586-.067-.427-.023-.876-.069-1.303-.046-.652.023-1.304.09-1.956.18-.63.068-1.259.18-1.865.27-.74.09-1.482.136-2.225.226-.697.09-1.416.226-2.112.338-.248.046-.496.135-.743.18-.539.113-1.1.158-1.64.338-.966.294-1.934.632-2.878.991a26.45 26.45 0 00-2.562 1.193c-.855.472-1.664 1.034-2.473 1.576a38.719 38.719 0 00-2.273 1.642c-.717.564-1.392 1.194-2.045 1.824-.359.36-.652.788-.99 1.193-.56.653-1.122 1.283-1.662 1.959-.448.563-.855 1.148-1.282 1.734-.763 1.033-1.414 2.137-2.02 3.24-.249.45-.473.901-.698 1.35-.337.675-.697 1.329-1.011 2.027-.226.473-.405.99-.54 1.508-.314 1.104-.629 2.23-.921 3.332-.27.99-.338 2.026-.359 3.04-.023.9.067 1.778.156 2.678.024.226-.11.496.158.675-.09.248-.023.385.11.427-.155.248.069.407-.02.632-.023.045.069.135.111.202 0 .068-.021.158 0 .226.024.202.114.404.114.63 0 .157.134.337.18.495.021.067 0 .18-.046.225-.135.157-.113.292.09.383.113.292.068.427.046.564.044.201-.023.269 0 .314.18.36.248.765.269 1.17 0 .09.045.181.09.293.023 0 0 .427 0 .427.111-.066.203-.088.315-.134.068.292.135.564.224.812.113.18.113.268.069.29.09.405.134.788.29 1.17 0-.427-.042-.854-.11-1.26.314.113.584.225.764.225.023-.068.045-.157.068-.202-.135-.134-.248-.337-.383-.472.046.18 0 .248 0 .316-.09-.046-.202-.091-.314-.136.09-.111.18-.225.314-.36 0-.202-.11-.384-.427-.36.135-.045.27-.112.427-.158.248-.134-.022-.382-.022-.697.022-.382-.202-.764-.27-1.17-.113-.63-.09-1.575-.157-2.206-.135-.112-.248.18-.27.203.068.54.135 1.08.18 1.62-.135-.45-.225-.945-.337-1.486-.023.158-.045.225-.045.316-.111.111-.023.248.045.405-.157-.069-.337-.045-.337-.045v.63c-.224-.225-.29-.404-.405-.563-.044-.18-.068-.359-.11-.538.042-.114 0-.181 0-.248a13.64 13.64 0 01-.069-.541c.022-.023-.022-.36-.022-.36.18.022.293.043.405.043-.225-.29-.069-.471.023-.651.045-.09.202-.111.248-.204.179-.337.472-.606.472-1.035 0-.202.068-.427.09-.63.045-.383.09-.766.11-1.149.047-.495 0-.99.114-1.463.181-.786.406-1.574.653-2.363.18-.564.383-1.102.606-1.666.338-.878.653-1.756 1.08-2.588.607-1.216 1.304-2.387 1.979-3.58.427-.742.876-1.44 1.35-2.16.448-.698.896-1.419 1.415-2.072a18.325 18.325 0 012.383-2.544c.9-.81 1.754-1.643 2.72-2.386a27.522 27.522 0 014.002-2.567c1.148-.606 2.338-1.081 3.53-1.532.765-.292 1.596-.427 2.383-.674a9.455 9.455 0 012.743-.45c.606-.024 1.191-.091 1.798-.159.54-.042 1.079-.089 1.664-.156-.068.09-.09.135-.113.18-.246.36-.516.72-.764 1.08-.202.293-.427.608-.63.9-.36.475-.742.947-1.079 1.442-.517.744-.99 1.509-1.529 2.251-.538.72-1.123 1.396-1.685 2.093-.742.969-1.439 1.959-2.18 2.927-.675.922-1.393 1.802-2.046 2.725-.584.809-1.102 1.666-1.664 2.497-.83 1.239-1.663 2.453-2.494 3.692a232.296 232.296 0 01-1.979 2.814c-.045.068-.112.089-.179.134-.18.292-.18.45-.248.585-.179.338-.358.675-.562.991-.112.18-.27.337-.405.517-.022-.27.36-.405.18-.743-.111.18-.225.338-.337.518l-.27.538c.09.069.248.114.09.248-.068.114-.135.248-.203.362a.815.815 0 00.248-.226c0 .248-.135.45-.248.652-.09.18-.314.316-.471.45.022.023.18.09.202.113.203-.069.27-.18.293-.113.069-.09.135-.157.158-.225.088-.225.223-.405.448-.495.09-.045.157-.113.225-.18.675-.698 1.372-1.373 1.978-2.116.945-1.15 1.8-2.341 2.7-3.511.38-.496.83-.991 1.235-1.465.066.518.022 1.013 0 1.487-.069.832-.113 1.666-.18 2.52-.023.337 0 .675-.023 1.013 0 .09-.068.157-.068.248 0 .224.068.472.068.698-.068.833-.159 1.642-.226 2.475-.023.18.067.36.111.519-.111 1.215.137 2.499-.067 3.782.158-.248.203-.405.203-.562.021-.135 0-.27 0-.428v-.225c.021-.406.11-.833.067-1.239-.046-.45-.046-.877.045-1.305.045-.18-.022-.405.09-.63v.337c-.022 1.281.023 2.565-.156 3.848-.023.113.068.316-.18.293-.203.405.045.698-.179.923-.046.045.043.248.066.383-.09.27-.09.27.044.293.023.495.069.944.09 1.418.359-.855.18-1.734.338-2.613.023.36.046.721.023 1.102 0 .587-.023 1.15-.045 1.734 0 .113-.023.226-.045.339-.068.316-.09.63-.203.922-.09.226-.044.564-.044.833v.857c.09.383-.023.585.044.81-.068.226-.09.294-.068.361l.068.338c.45-.046.248.293.428.472-.135.181-.09.248-.09.34 0 .202-.021.382-.045.584 0 .518-.022 1.036-.022 1.531 0 .069.022.134.022.202 0 .046-.022.632-.022.632.046.067 0 .134-.068.202-.021 0-.089-2.86-.089-2.86h-.337c-.045 1.35.068 2.566-.18 3.827-.27.022-.359.067-.652.067-.697 0-1.395 0-2.092.022-.832 0-1.64.022-2.473.022-.403 0-.83.047-1.235.047-.54 0-1.102-.069-1.64-.069-.833 0-1.642.069-2.474.09-.606.023-1.213.023-1.82.046-.405.021-.811.043-1.214.089-.18.022-.338.09-.562.157-.069 0-.225-.022-.36 0-.226.045-.426.18-.653.226-.337.068-.427.157-.382.495v.225c-.023.044.495-.069.495-.069-.046 0-.068.135-.137.248.182-.068.293-.113.406-.157.338.158.63.068.899.137.876.223 1.775.316 2.674.404.585.045 1.147.068 1.731.09.831.045 1.663.09 2.495.09.697 0 1.372-.068 2.067-.068.965 0 1.934.044 2.9.068.203 0 .427-.024.652-.024h1.64c1.463-.044 2.923-.068 4.385-.111.833-.024 1.687-.068 2.518-.091l2.563-.069c.99-.022 1.978-.022 2.945-.042.742 0 1.461-.026 2.204-.047.83-.023 1.685-.09 2.517-.135.45-.023.9-.068 1.35-.112.54-.045 1.102-.111 1.64-.134.81-.047 1.642-.069 2.452-.114 1.011-.067 2.022-.156 3.056-.18.945-.044 1.911-.022 2.856-.044.832-.023 1.664-.068 2.518-.09l1.418-.069s.943-.022 1.416-.068c.809-.045 1.618-.134 2.428-.156.516-.024 1.033 0 1.55-.024.831-.022 1.685-.068 2.517-.068.314 0 .651.046 1.056.068-.18.159-.292.248-.427.361.09.022.18.068.27.113a.607.607 0 01-.359.11c-.046.114-.091.16-.136.385h.405c-.158 0-.293.203-.45.338-.18-.046-.337 0-.427.247.157.09.135.157.113.248-.27.089-.472.18-.359.472-.091.044-.203.09-.316.157-.111.18-.314.224-.27.472.09.022.18.069.248.09-.113.044-.225.112-.338.156-.404.248-.223.36-.134.474-.068.045-.135.09-.202.112.044.203.11.248.134.248a7.945 7.945 0 00-.337.27c-.069.202-.159.292-.248.427s-.135.316-.248.45c-.471.519-.809 1.128-1.415 1.532-.226.158-.428.36-.63.564-.405.382-.765.81-1.192 1.17a25.282 25.282 0 01-1.753 1.328 129.47 129.47 0 01-2.224 1.53c-.405.27-.854.472-1.281.72s-.832.473-1.26.72c-.27.18-.517.427-.81.564-.74.316-1.529.585-2.292.878-.743.316-1.282.585-1.844.787a12.69 12.69 0 01-1.595.428c-.18.046-.383 0-.586.023-.382.068-.764.158-1.147.203-.99.135-1.978.225-2.967.36-.585.069-1.147.18-1.731.248-.404.022-.831-.022-1.236-.022-.293 0-.607.068-.9.023-.471-.068-.944-.18-1.416-.27-.111-.022-.27-.068-.359-.022-.18.09-.338-.045-.519 0-.11.023-.223-.069-.336-.069-.09-.02-.203.024-.316 0-.248-.066-.472-.156-.743-.134-.268.023-.539-.112-.829-.179-.406-.09-.786-.18-1.193-.27a2.033 2.033 0 01-.448-.203c-.585 0-.968-.023-1.328-.158-.314-.111-.606-.27-.943-.224-.09.022-.157-.022-.248-.022-.069-.09-.134-.271-.201-.271-.45.023-.72-.359-1.102-.473-.202-.068-.359-.293-.561-.36-.496-.203-.899-.63-1.461-.697-.18-.023-.359-.113-.562-.18.068.09.111.157.18.224-.652-.316-1.259-.675-1.866-1.013-.09-.022-.157-.11-.224-.157l-.607-.405c-.337.068-.472-.068-.563-.113-.607-.427-1.303-.698-1.888-1.17-.248-.203-.539-.338-.718-.586-.316-.383-.698-.653-1.125-.877-.337-.18-.65-.383-.965-.586-.158-.112-.316-.247-.316-.495 0-.158-.067-.316-.27-.225-.09-.135-.179-.293-.292-.338-.27-.111-.449-.316-.651-.495s-.36-.428-.607-.517c-.45-.18-.72-.562-.99-.878-.63-.743-1.192-1.554-1.776-2.34-.045-.069-.135-.114-.202-.181.09.247.202.45.314.675-.224-.09-.381-.248-.516-.405-.023.023 1.55 2.611 1.55 2.611.137.203.248.406.383.608a.695.695 0 01-.675-.36c-.201-.359-.427-.584-.876-.538a3.92 3.92 0 01-.111-.496c-.092 0-.158 0-.316-.023.316.496.585.923.877 1.418-.114-.068-.18-.113-.226-.135.404.427.696.968 1.213 1.239.112.517.697.764.832 1.26-.111-.023-.204-.045-.316-.068-.18-.225-.382-.45-.584-.698.045.158.111.293.202.405.27.338.517.675.832.968.113.115.27.16.27.362.18.09.247.112.314.112.046.136-.021.339.248.293.18.338.359.338.606.226.293.293.451.316.653.137 0 .11.022.223.022.314.09-.045.069-.113.069-.226.11.09.179.135.223.18.225.316.428.608.742.856.427.36.81.743 1.213 1.08.788.654 1.666 1.195 2.541 1.69 1.08.607 2.115 1.26 3.216 1.844 1.325.7 2.742 1.172 4.203 1.51.54.113 1.056.225 1.597.359.47.136.943.339 1.416.45.719.159 1.46.294 2.18.428.156.023.316.046.495.068.2.045.448-.045.493.023.113.18.202.09.337.067.158-.045.338-.045.517-.045.63.022 1.236.157 1.866.112.137 0 .338-.113.45.111.203-.09.315-.09.405-.11.024.201 0 .201-.043.223-.046.022-.113.045-.203.113.809.157 1.574.18 2.247 0 1.17.09 2.181-.045 3.148-.383.09.113.158.27.293.046.044-.069.157-.092.247-.114.202-.045.45-.135.629-.068.203.068.27-.111.427-.111.271 0 .518-.024.766-.069.135-.022.27-.09.427-.135a1.098 1.098 0 00-.496-.113c.271-.135.518-.248.766-.36-.046.067-.09.157-.18.157h.314c-.069 0-.158.203-.27.338.808-.203 1.55-.383 2.27-.564-.248-.472.269-.314.449-.585a6.97 6.97 0 01-.675.18c.765-.382 1.551-.72 2.315-1.057-.111.135-.248.203-.448.316.135.022.224.022.292.043.359.114.27-.224.382-.427.427 0 .606-.067.809-.135.224-.069.449-.135.674-.225.36-.157.697-.359 1.056-.538.069-.024.18 0 .27 0 .248-.159.337-.294.404-.272.316.046.538-.068.629-.358.157-.114.27-.204.382-.272.494-.27.965-.54 1.46-.81.18 0 .27 0 .315-.023a9.78 9.78 0 00.833-.45 1.929 1.929 0 01-.225-.111c.224-.046.29-.069.427-.114.538-.632 1.282-1.06 1.843-1.555.248-.022.248-.09.248-.134.089-.112.18-.247.29-.338.496-.45 1.034-.833 1.484-1.305a31.744 31.744 0 001.866-2.028c.538-.63 1.08-1.26 1.529-1.958.63-.968 1.168-1.959 1.73-2.973.405-.72.765-1.44 1.17-2.16.043-.068.135-.158.202-.158.607-.068 1.215-.11 1.8-.179.134-.022.292-.111.427-.18-.069-.112-.113-.247-.18-.36-.09-.137-.225-.248-.316-.384-.089-.111-.156-.248-.224-.382-.068-.111-.135-.202-.202-.316a8.286 8.286 0 01-.385-.764c-.022-.068-.068-.18-.044-.248.405-.877.562-1.823.944-2.7.382-.901.495-1.914.675-2.882.157-.923.248-1.845.359-2.768.068-.653.158-1.283.179-1.936.137-1.035.09-2.004.068-2.972-.022-.855-.068-1.733-.11-2.589zM16.252 62.38c-.157-.179-.292-.382-.45-.561l.07-.069c.244.271.492.541.739.834-.135-.068-.292-.113-.359-.203zm.359.204c.068-.023.137-.023.203-.045.069.113.113.248.18.383-.315-.024-.472-.159-.382-.338zm23.38 9.297v-.068l1.26-.135v.066c-.428.069-.832.111-1.26.135zm5.665-.585c-.314.068-.651.113-.966.159-.113.022-.247.135-.292-.069-.045.023-.09.023-.135.046.111.337.382.067.607.202-.496.068-.966.113-1.439.18v-.045c.137-.022.293-.045.427-.068v-.067a6.614 6.614 0 00-.675-.045c-.065 0-.156.09-.223.112-.09.023-.18.046-.293.046-.381.022-.763.022-1.124.044-.023 0-.068-.022-.09-.022v-.068c1.506-.202 2.99-.404 4.496-.607.023.045.023.09.045.134-.135 0-.225.047-.338.069zm.338-.224c.518-.068.99-.113 1.485-.18-1.034.293-1.372.337-1.484.18zm-19.58-45.45c.717-.991 1.46-1.982 2.18-2.995.224-.294.404-.61.628-.902.069-.09.158-.135.27-.225l-.022-.043c.09-.114.18-.205.225-.294.114-.18.182-.382.271-.585.023-.043.09-.088.09-.088.316.157.316-.18.427-.293.203-.225.405-.472.585-.698.134-.18.27-.337.382-.54.022-.068-.045-.18-.068-.27h-.067c.069-.045.135-.112.203-.158.022 0 .022 0 .044-.022.135-.203.27-.406.405-.586.27-.359.561-.72.876-1.034-.045.111-.09.225-.135.315.023 0 .023.023.045.023.27-.36.562-.698.832-1.06-.023-.02-.045-.044-.068-.044-.111.113-.202.226-.315.338-.022-.023-.044-.045-.068-.045.226-.293.451-.585.675-.922.045.068.09.157.18.337.09-.225.18-.382.247-.54-.067.068-.156.135-.224.203l-.068-.068.405-.606c.427-.609.854-1.24 1.281-1.847.158-.225.359-.405.496-.63.427-.855 1.102-1.532 1.617-2.32.113-.156.27-.291.405-.426.111-.137.203-.09.293.022.606.765 1.213 1.553 1.82 2.318.45.564.9 1.102 1.327 1.688.516.721 1.011 1.441 1.529 2.162.584.832 1.168 1.665 1.73 2.52.855 1.261 1.664 2.522 2.518 3.782.63.923 1.26 1.824 1.866 2.747h-1.149c-1.055-.022-2.135-.111-3.191-.067-1.439.068-2.9.226-4.338.338-1.821.158-3.665.18-5.484.18-.654 0-1.305.091-1.956.136-.788.045-1.553.09-2.34.111-.922.047-1.819.069-2.741.092-.518.022-1.057 0-1.62 0zm25.783 10.353v.203c-.022 0-.044.023-.09.023-.089-.316-.179-.654-.291-.97-.225-.653-.473-1.306-.878-1.89-.45-.63-.854-1.282-1.305-1.935-.111-.158-.27-.293-.405-.427-.472-.519-.945-1.06-1.551-1.442a18.354 18.354 0 00-2.81-1.442 6.3 6.3 0 01-.787-.404h.538l3.845-.069c.832-.021 1.641-.021 2.473-.066.201 0 .314.068.427.247.201.338.404.675.629 1.013.023.045.068.111.068.18 0 .495 0 1.013.022 1.508.021.518.068 1.014.089 1.531 0 .518-.045 1.058-.022 1.598.023.766.045 1.554.045 2.34zm-24.189-7.538c1.057-.045 2.068-.113 3.103-.158.807-.045 1.64-.068 2.448-.113.338-.021.653-.042.99 0-.36.181-.72.362-1.034.586-.405.27-.786.63-1.192.923-.406.292-.765.653-1.102 1.035-.427.517-.9.967-1.35 1.463-.316.36-.674.698-.943 1.08-.382.496-.72 1.034-1.08 1.598.113-2.14.248-4.254.158-6.416zm14.68 21.655c-.72.18-1.46.383-2.203.473-.629.09-1.282.068-1.933.068-.586 0-1.149-.022-1.733-.068-.652-.067-1.303-.134-1.933-.427-.54-.248-1.102-.473-1.64-.744-.542-.27-1.08-.584-1.487-1.08-.29-.36-.696-.653-1.055-.968.068.27.224.495.472.653-.113.135-.27.068-.495-.293-.067.045-.135.068-.18.09.068-.158.135-.316.203-.45-.09-.18-.203-.383-.293-.564a18.94 18.94 0 01-.516-.9c-.046-.068-.046-.134-.09-.202a5.034 5.034 0 01-.316-.406c-.18-.269-.337-.56-.561-.832 0 .069.023.135.023.226-.023 0-.046.022-.046.022l-.473-1.148c-.022 0-.022 0-.044.022l.404 1.487c-.022 0-.045.021-.069.021-.065-.089-.133-.18-.179-.29-.044-.182-.18-.182-.29-.114-.069.045-.114.202-.09.27.157.383.336.765.517 1.148.044.135.09.248.157.383.023.045.09.09.09.157.091.18.159.359.27.518.203.27.428.54.63.81.2.27.38.563.56.832.023.046.09.046.111.069.114.337.496.584.766.449.068.518.63.698.854 1.193a10.214 10.214 0 01-.652-.293c-.023.023-.023.045-.046.09.27.135.54.27.786.427.226.137.451.27.654.427.27.248.585.385.965.473-.02-.068-.043-.09-.043-.09.629.292 1.282.607 1.775.853-2.338.046-4.833.092-7.419.137 0-.427-.022-.833-.022-1.26 0-.18.044-.338.021-.519-.068-1.033-.068-2.07-.202-3.083-.134-1.08-.134-2.139-.111-3.22.021-.584-.023-1.192-.046-1.778 0-.787 0-1.554.024-2.34 0-.113.045-.203.09-.316h.068c.022.046 0 .113.043.136.069.069.181.18.227.157.134-.09.336-.179.381-.316.111-.269.158-.562.158-.832 0-.201.09-.336.179-.472.046-.068.068-.135.114-.225-.09-.068-.18-.113-.293-.202.091-.248.069-.541.406-.675.045-.023.045-.137.069-.203.02-.182.042-.385.066-.564.045.068.069.09.111.134a.359.359 0 01.046-.068c0-.09-.022-.27 0-.27.27-.045.158-.337.293-.472.02-.024-.024-.091-.024-.137 0-.044 0-.11.023-.11.313-.069.269-.406.471-.564.069-.046.09-.112.18-.225.179.314-.135.472-.158.697.381-.225.494-.765.27-.923.09-.068.179-.157.247-.247.248-.27.516-.518.742-.788.158-.202.247-.45.405-.652.09-.113.27-.202.405-.27.404-.224.785-.472 1.033-.855.045-.045.113-.09.18-.135.068-.045.203-.045.225-.113.023-.044-.044-.157-.09-.224.09-.046.18-.135.36-.226-.07.135-.09.226-.136.316l.111.111c.204-.157.518-.336.72-.471 0-.022-.112-.111-.112-.111-.134.068-.337.18-.539.27.043-.069.043-.113.069-.135.313-.203.628-.405.965-.564.786-.359 1.574-.72 2.36-1.057.135-.068.316-.022.473-.022.066 0 .11 0 .18-.022.358-.113.718-.226 1.078-.316.156-.045.336-.067.496-.067.672.021 1.347.021 2.02.067.293.022.563.09.833.18a8.44 8.44 0 011.011.426c.382.205.742.43 1.102.677.652.427 1.259.9 1.91 1.283.63.383 1.124.9 1.53 1.486.495.697 1.056 1.328 1.28 2.183l.337 1.486c.069.27.226.54.158.855-.113.563-.203 1.149-.293 1.711-.044.227-.09.453-.066.675.042.7-.227 1.307-.496 1.938-.09.202-.225.406-.337.63a.682.682 0 00.18.09l.202-.404c.023 0 .023 0 .045.023-.113.314-.202.653-.316.968-.268.698-.538 1.418-.876 2.093-.18.382-.495.698-.719 1.059-.224.314-.404.652-.629.945-.202.247-.404.495-.675.675-.606.45-1.236.9-1.887 1.26-.405.248-.877.383-1.326.496zm-11.982-1.196l-.022.023c-.047-.022-.115-.044-.159-.09l-.54-.81a.256.256 0 01-.044-.225c.247.383.495.744.764 1.102zM44.69 51.98c1.01-.427 1.843-1.033 2.606-1.732.113-.113.225-.225.36-.316.945-.585 1.64-1.395 2.27-2.296.72-1.035 1.192-2.205 1.778-3.308a2.332 2.332 0 01.134-.248c-.046 2.566.247 5.087.584 7.631-2.54.09-5.125.18-7.733.27zm22.794-.675c-.022.046-.068.091-.09.137-.023-.046-.023-.114-.045-.205-.135.361-.427.181-.63.181-1.212.023-2.45.023-3.664.023-1.169 0-2.36 0-3.528.02-.383 0-.788.09-1.17.114-.921.044-1.843.068-2.765.09-.068 0-.135-.112-.248-.202a1.546 1.546 0 01-.135.202c-.023-.044-.068-.089-.113-.156a1.311 1.311 0 01-.068.18h-.065c-.046-.315-.135-.607-.135-.923 0-.675.068-1.35.09-2.027.022-.314 0-.606 0-.9.09.068.157.113.247.18.044-.089.09-.156.135-.223 0 0-.045-.024-.09-.068.042-.023.088-.069.088-.09.023-.07.069-.136.069-.18 0-.158-.046-.293-.069-.427.023 0 .045 0 .069-.024l.134.675h.068c-.09-.157.202-.292-.045-.472-.022-.023.022-.158.022-.225-.068-.134-.111-.27-.18-.45.023-.022.09-.045.158-.068-.09-.044-.157-.089-.225-.111.225-.203.225-.316.022-.54.047-.022.09-.022.09-.044 0-.203 0-.405-.043-.606-.046-.227.068-.496-.27-.632a.675.675 0 00.09.18s-.07.022-.136.068c-.292-.271-.11-.633-.18-1.037.158.046.27.09.383.137-.046-.159-.157-.34-.225-.542h-.091v-1.486c0 .023.157.023.247.046 0-.023.022-.045.022-.068-.069-.09-.158-.18-.248-.292l.045-.046c-.18-.223-.09-.538-.09-.606v-1.576c.226.225-.11.517.226.652v-.224h-.023c-.022-.338-.022-.675-.044-1.013h-.045c-.023.046-.023.068-.046.113h-.044l.135-5.38c.224.292.471.564.628.854.518.947 1.192 1.758 1.822 2.613.54.743 1.033 1.553 1.529 2.318.606.923 1.19 1.845 1.798 2.768a69.544 69.544 0 001.392 2.072c.427.607.879 1.193 1.328 1.779.38.518.786 1.035 1.168 1.553.45.63.9 1.26 1.35 1.868.223.314.47.63.717.945.137.18.338.316.473.427-.021 0-.044 0-.089-.022.069.09.111.157.158.202.247.135.27.27.134.474zm1.147-5.626v-.158c0 .045.022.111 0 .157zm.764-9.926c-.023 0-.157-.137-.18-.159-.022.068 0 .135-.045.226-.023-.067-.179-.045-.179-.111-.023.314.134.63.111.944.068-.045.338-.068.405-.135a.176.176 0 00.09.045c-.45.338-.337.675-.134 1.059.044.089.179.27.044.45-.044.045.023.179.045.292h.066v.043l-.202.068c-.045-.068-.314-.201-.314-.316v1.15c.225.069.225.383.315.54a.656.656 0 00.09-.178l.024.02c-.023.135-.045.27-.09.406-.045.201-.09.382-.112.584 0 .022.043.068.043.09-.246.564-.111 1.192-.2 1.777-.069.427 0 .88-.046 1.329-.046.383-.137.787-.225 1.17-.024.069-.069.09-.18.135.045-.27.022-.45-.023-.698-.024 0-.316-.157-.34-.157 0 .316.18.743.249 1.102-.069-.022-.338-.18-.36-.18-.045.27-.045.631-.067.923-.024.226-.225.427-.248.675 0 .137.157.226.135.451h.18c0-.45.202-.854.202-1.327h.067c.023.045.09.09.068.112-.045.248-.136.518-.112.766 0 .135.11.27.068.427-.046.137-.068.27-.091.473-.023-.113-.046-.157-.046-.224-.022 0-.224-.024-.247-.024-.023.135.158.27.135.383-.023.022-.045.022-.09.045l-.742-1.081c-.586-.854-1.17-1.711-1.754-2.588a5.392 5.392 0 01-.406-.675 31.684 31.684 0 00-2.315-3.445c-.65-.833-1.17-1.735-1.777-2.61-.56-.833-1.122-1.644-1.684-2.478-.203-.269-.45-.516-.63-.81-.583-.922-1.102-1.868-1.685-2.79-.495-.766-1.033-1.51-1.55-2.252-.18-.248-.36-.519-.54-.788a.316.316 0 01-.045-.156c-.045-.495-.09-.99-.113-1.463 0-.45.045-.9.045-1.374v-.405c0-.113.022-.202.022-.316.021-.021.044-.067.066-.089-.651 0-1.326-.024-1.978 0-.427.022-.652-.159-.944-.474-.854-.968-1.484-2.07-2.225-3.106a138.747 138.747 0 00-2.136-2.927c-.585-.788-1.17-1.553-1.754-2.341-.652-.9-1.281-1.8-1.956-2.701-.81-1.08-1.642-2.161-2.473-3.241-.385-.496-.812-.968-1.239-1.487.293.047.564.09.833.114l1.08.068c.809.066 1.618.111 2.426.222.675.092 1.35.227 2.047.339 1.484.247 2.945.653 4.362 1.126.832.27 1.64.63 2.451.967 1.82.744 3.551 1.644 5.26 2.589.538.293.854.765 1.257 1.193.585.608 1.17 1.216 1.732 1.845.65.744 1.257 1.509 1.888 2.274.561.675 1.144 1.35 1.708 2.027.18.202.316.45.472.675.359.54.764 1.059 1.079 1.643.224.429.359.924.516 1.397.224.698.45 1.373.675 2.07.156.518.29 1.06.403 1.598.09.361.068.743.18 1.102.136.475 0 .99.136 1.465.021.045.043.113.066.158.09.089.158.18.023.314-.022.023-.022.111 0 .18.046-.045.068-.09.113-.157 0 .045.022.068.022.09 0 .088-.023.179 0 .268 0 .045.044.111.066.158.046-.047.09-.069.18-.137.202.766.225 1.532.225 2.32 0 .742.134 1.486-.18 2.206.067-.248-.09-.474-.022-.699z" stroke-width="1.2976057499999998"/><path d="M55.03 44.507c.022 0 .045.023.045.023l-.023-.025c0-.022 0-.022-.022 0zm3.552 22.242c-.248.179-.495.337-.81.404-.024-.022-.024-.045-.046-.068.248-.157.517-.314.765-.472.023.042.068.089.09.134zm-42.15-30.504c.247-.314.495-.629.763-.944.022.022.201.068.224.09-.248.316-.585.743-.832 1.08-.046-.045-.113-.202-.158-.225zm-6.386 11.033c-.18-.383-.359-.789-.538-1.17a.777.777 0 01.202-.091c.247.359.358.786.54 1.17 0 0-.18.09-.203.09zM15.78 36.47c-.135.204-.27.43-.405.633-.022-.024-.27.088-.292.066.135-.202.471-.564.606-.765.023.022.046.045.09.068zm40.397 31.202c.022 0 .022-.022.045-.022.157.022.336.044.517.044-.294.203-.475.18-.564-.022zM15.823 37.417a.946.946 0 01.113-.202c.045 0 .111-.023.111-.023.092-.158.092-.27.181-.405-.022-.023-.045-.023-.068-.046-.134.093-.27.205-.404.295.045.044.045.068.045.113-.18-.023-.248.068-.337.314-.022.068-.135.09-.248.18-.022.046-.044.158-.09.27l.023.024a.336.336 0 01-.112.069c-.135.134-.292.247-.427.381-.023.069-.045.135-.045.203.158-.157.427-.45.63-.63l.023.023c.09-.135.157-.27.247-.405.022.022.022.044.045.068-.068.18-.135.381-.203.561-.047.022-.114.069-.114.045-.09.069-.157.158-.248.225l-.404.27c-.224.203-.45.382-.697.585-.157.248-.314.473-.495.766.27-.069.338.045.316.27.314.045.337-.202.427-.382.022-.046.045-.137.09-.16.202-.179.427-.336.651-.516.046-.045.046-.137.046-.203 0-.022-.114-.022-.181-.046.202-.225.495-.606.697-.854.112-.068.224-.159.224-.226-.022-.248.135-.315.316-.405-.09-.068-.113-.134-.113-.156z" stroke-width="1.2976057499999998"/><path d="M16.274 37.17c-.09.156-.18.291-.27.45l-.134-.069c-.09.517-.405.967-.72 1.057.09.045.18.09.248.068.067-.023.111-.136.156-.203l.607-.878.203-.339-.09-.09zM8.789 47.05c.112 0 .225.022.358.022 0-.09.114-.068.114-.157h.068c0 .113.023.203.023.316H8.88c-.023-.023-.113-.159-.09-.18zm-.18-1.035c-.068-.068-.18-.135-.18-.203-.022-.088.045-.2.112-.313.046.157.068.292.113.45-.023.021-.046.045-.046.067zm.562-1.441c.09.227.18.475.27.7a.682.682 0 00-.18.09c-.089-.226-.202-.473-.291-.698a.557.557 0 01.202-.09zm50.042 21.522c.111-.045.246-.069.427-.111-.203.156-.36.269-.495.404-.023-.022-.045-.046-.068-.046.045-.09.09-.157.136-.247zM31.582 18.53c.134-.09.248-.158.382-.247l.044.044c-.137.18-.248.359-.406.585-.022-.156-.022-.248-.045-.359-.022 0 0 0 .023-.022zm6.586 11.39c.203-.09.405-.18.652-.293-.022.135-.022.225-.022.316a.792.792 0 00-.226-.046c-.135.023-.383.203-.495.225-.022 0 .09-.179.09-.202zm16.863 19.09c.044.224.471.336.044.561.069.047.134.068.202.115a.17.17 0 01-.044.09c-.046.022-.135.067-.18.043-.023 0-.068-.089-.068-.134 0-.203.023-.405.045-.675z" stroke-width="1.2976057499999998"/></g></svg>