<svg viewBox="0 0 300 300" xmlns="http://www.w3.org/2000/svg"><style>.st2{fill:#fff}</style><g fill="#455a64"><path class="st2" d="M71.515 107.054h59.431V256.98l28.364 4.053v16.208H72.866v-17.56l28.364-4.051V125.964c-4.052 0-9.455 0-14.857-1.351s-9.455-1.35-13.507-2.702c0-4.052-1.351-9.454-1.351-14.857zM133.647 67.883v-37.82c5.403-1.35 12.156-4.051 20.26-5.402 6.754-1.35 17.56-2.701 29.716-1.35 6.753 1.35 14.858 2.7 22.962 8.104 2.701 2.7 9.455 8.104 13.507 17.559 6.753 14.857 1.35 29.715-1.35 35.118-8.105 18.91-27.015 25.663-29.716 27.014 5.403 1.35 13.507 2.701 21.611 9.455 14.858 12.156 16.208 28.364 17.56 32.416 2.7 22.962-14.859 39.17-17.56 43.223-10.806 10.806-21.611 13.507-28.365 16.208-10.805 4.052-21.61 4.052-28.364 4.052v-21.61h12.156c5.403-1.351 14.858-2.702 24.312-9.456 2.702-2.701 10.806-9.455 10.806-22.962 0-2.701 1.35-14.857-8.104-24.312-5.403-5.403-10.806-6.754-18.91-9.455s-16.208-2.702-20.26-2.702v-18.91c4.052 0 9.455-1.35 16.208-4.051s13.507-4.053 18.91-10.806c2.701-2.701 10.805-12.156 9.455-25.663 0-2.702-1.351-10.806-8.105-16.209-6.753-6.753-16.208-6.753-21.61-6.753-8.105 0-14.858 2.701-17.56 4.052-1.35 6.753-1.35 14.858-2.701 21.611-4.052-1.35-9.455-1.35-14.858-1.35z"/></g></svg>