<svg viewBox="0 0 24 24" xmlns="http://www.w3.org/2000/svg"><g fill="#fbc02d"><path d="M11.938 16.414c.9-1.102 1.468-2.937 1.468-4.735 0-1.964-.697-3.854-1.872-5.12-1.156-1.248-2.66-1.854-4.57-1.854s-3.413.606-4.57 1.854C1.22 7.825.524 9.715.524 11.716c0 2 .697 3.89 1.872 5.156 1.156 1.248 2.68 1.854 4.57 1.854 1.376 0 2.404-.275 3.468-.918l1.578 1.487 1.395-1.487zm-3.395-3.212l-1.395 1.487 1.413 1.34c-.422.22-1.028.348-1.615.348-2.202 0-3.67-1.854-3.67-4.661 0-2.808 1.468-4.662 3.689-4.662 2.239 0 3.688 1.836 3.688 4.68 0 1.101-.202 2.092-.605 2.9z" stroke-width="1.364" aria-label="Q"/><path d="M17.588 4.728l-.61 4h-1.5l-.34 2h1.5l-.321 2h-1.5l-.34 2h1.5l-.61 4h2l.61-4h1l-.61 4h2l.61-4h1.5l.34-2h-1.5l.32-2h1.5l.34-2h-1.5l.611-4h-2l-.61 4h-1l.61-4zm1.05 6h1l-.321 2h-1z"/></g></svg>