<svg clip-rule="evenodd" fill-rule="evenodd" stroke-linejoin="round" stroke-miterlimit="1.414" viewBox="0 0 24 24" xmlns="http://www.w3.org/2000/svg"><g stroke-miterlimit="4" fill="#ef5350" stroke-width="1.702" stroke="#ef5350"><path d="M15.878 15.787a1.437 1.437 0 00-.154-2.866h-.051a1.432 1.432 0 00-1.382 1.484c.026.384.18.717.41.947-.87 1.714-2.2 2.968-4.197 4.017-1.356.716-2.763.972-4.17.793-1.152-.153-2.047-.665-2.61-1.51-.819-1.253-.896-2.61-.205-3.965.486-.973 1.254-1.69 1.74-2.047a13.804 13.804 0 01-.333-1.305c-3.71 2.686-3.326 6.32-2.2 8.034.844 1.28 2.559 2.073 4.452 2.073a6.29 6.29 0 001.535-.18c3.276-.64 5.757-2.584 7.165-5.475z" stroke-width=".43549074"/><path d="M20.381 12.614c-1.945-2.277-4.81-3.531-8.085-3.531h-.41a1.406 1.406 0 00-1.254-.768h-.05A1.432 1.432 0 009.2 9.8a1.437 1.437 0 001.432 1.382h.052a1.441 1.441 0 001.253-.87h.46c1.946 0 3.788.563 5.45 1.663 1.28.845 2.201 1.945 2.713 3.276.435 1.074.41 2.123-.051 3.019-.716 1.356-1.919 2.098-3.505 2.098a6.544 6.544 0 01-2.508-.537c-.281.255-.793.665-1.151.92 1.1.512 2.226.794 3.3.794 2.457 0 4.273-1.356 4.964-2.712.742-1.484.691-4.043-1.228-6.218z" stroke-width=".43549074"/><path d="M7.383 16.222a1.437 1.437 0 001.433 1.382h.05a1.432 1.432 0 001.383-1.485 1.437 1.437 0 00-1.433-1.381h-.051c-.052 0-.128 0-.18.025-1.049-1.74-1.484-3.633-1.33-5.68.102-1.535.614-2.866 1.51-3.966.742-.947 2.174-1.407 3.147-1.433 2.712-.051 3.863 3.326 3.94 4.683.333.076.896.255 1.28.383-.308-4.145-2.866-6.294-5.323-6.294-2.302 0-4.426 1.663-5.27 4.12-1.178 3.275-.41 6.422 1.023 8.904a1.15 1.15 0 00-.18.742z" stroke-width=".43549074"/></g></svg>