<svg fill="none" viewBox="0 0 24 24" xmlns="http://www.w3.org/2000/svg"><g fill="#e53935" stroke-width=".961"><path d="M3.221 3.66c0-.087.071-.159.159-.159h11.756c3.116 0 5.643 2.538 5.643 5.667v1.1c0 .088-.07.16-.158.16h-3.446a.159.159 0 01-.158-.16v-1.1a1.885 1.885 0 00-1.881-1.889H7.142a.159.159 0 00-.158.16v12.904c0 .088-.071.16-.158.156a3.771 3.771 0 01-3.604-3.775z"/><path d="M10.277 11.057a.154.154 0 00-.154.16 3.77 3.77 0 003.759 3.618h2.508c.346 0 .627.282.627.63v4.878c0 .088.07.16.158.156a3.771 3.771 0 003.604-3.775v-1.26c0-2.433-1.965-4.407-4.39-4.407z"/></g></svg>