<svg viewBox="0 0 24 24" xmlns="http://www.w3.org/2000/svg"><path d="M6.529 10.62A2.645 2.645 0 019.17 7.979a2.645 2.645 0 012.643 2.643.96.96 0 11-1.917 0 .724.724 0 00-1.45 0 .959.959 0 11-1.917 0m10.942 4.44c0 .532-.429.961-.958.961H7.617a.959.959 0 01-.958-.96c0-.531.429-.96.958-.96h8.896c.53 0 .958.429.958.96m-4.156-3.903a.959.959 0 01.259-1.332l2.223-1.502a.96.96 0 111.073 1.587l-2.224 1.502a.943.943 0 01-.534.167.965.965 0 01-.797-.422m6.09 5.905a.685.685 0 01-.201.483L17.55 19.2a.685.685 0 01-.484.2H6.934a.685.685 0 01-.484-.2l-1.653-1.653a.685.685 0 01-.2-.483V6.936c0-.181.072-.355.2-.483L6.45 4.8a.685.685 0 01.484-.2h10.133c.182 0 .356.071.484.2l1.653 1.653c.128.128.2.302.2.483zM20.81 5.347L18.653 3.19a1.744 1.744 0 00-1.233-.51H6.58c-.463 0-.906.183-1.234.51L3.19 5.348c-.327.327-.51.77-.51 1.233v10.84c0 .462.184.906.51 1.233l2.158 2.158c.327.327.77.51 1.233.51h10.84c.462 0 .906-.183 1.233-.51l2.158-2.158c.327-.327.51-.77.51-1.233V6.58c0-.462-.183-.906-.51-1.233" fill="#00bfa5"/></svg>