<svg preserveAspectRatio="xMidYMid" viewBox="0 0 250 250" xmlns="http://www.w3.org/2000/svg"><g stroke-width=".725"><path d="M190.945 86.173v77.236l-65.63 38.829-.593.54v28.867l.593.56 92.43-53.39V71.194l-.873-.215-26.058 14.568.132.629" fill="#01579b"/><path d="M59.477 164.043l65.84 38.196v29.966l-93.063-53.601v-107.2l.955-.144 25.983 15.106.285.865v76.814" fill="#0288d1"/><path d="M59.477 87.223L32.254 71.396l92.852-53.601 92.64 53.39-26.8 14.983-65.84-37.563-65.63 38.618" fill="#4fc3f7"/><path d="M124.186 155.203l-.713-.727v-29.002l.713-.369.173-.715 24.864-14.504.76.17v29.884l-25.798 15.263" fill="#2f406a"/><path d="M97.959 140.873v-31.029l.72-.035 25.292 14.718.216.58v30.098l-26.228-14.332" fill="#2379bd"/><path d="M123.756 94.583l-25.798 15.264 26.228 15.263 25.798-15.049-26.228-15.479" fill="#03afef"/><path d="M92.083 174.123l-.713-.727v-29.003l.713-.368.173-.715 24.863-14.504.761.17v29.882l-25.798 15.264" fill="#01579b"/><path d="M65.855 159.793v-31.03l.72-.036 25.292 14.72.215.58v30.098l-26.228-14.332" fill="#0288d1"/><path d="M91.653 113.503l-25.799 15.263 26.229 15.264 25.798-15.049-26.228-15.479" fill="#4fc3f7"/><path d="M158.585 174.843l-.712-.727v-29.003l.713-.368.173-.715 24.864-14.504.76.17v29.882l-25.798 15.264" fill="#01579b"/><path d="M132.356 160.513v-31.03l.72-.035 25.292 14.72.216.58v30.097l-26.228-14.332" fill="#0288d1"/><path d="M158.155 114.213l-25.798 15.263 26.228 15.264 25.798-15.049-26.228-15.479" fill="#4fc3f7"/><path d="M126.476 193.763l-.713-.727v-29.003l.713-.368.173-.716 24.864-14.503.76.17V178.5l-25.798 15.264" fill="#01579b"/><path d="M100.256 179.433v-31.03l.72-.035 25.293 14.718.214.58v30.099l-26.228-14.332" fill="#0288d1"/><path d="M126.046 133.133l-25.799 15.264 26.229 15.264 25.798-15.049-26.228-15.479" fill="#4fc3f7"/><path d="M124.186 114.073l-.713-.728V84.343l.713-.368.173-.715 24.864-14.503.76.17v29.882l-25.798 15.264" fill="#01579b"/><path d="M97.959 99.743v-31.03l.72-.035 25.292 14.718.216.58v30.099L97.959 99.743" fill="#0288d1"/><path d="M123.756 53.443L97.958 68.707l26.228 15.264 25.798-15.049-26.228-15.479" fill="#4fc3f7"/><path d="M92.083 132.993l-.713-.727v-29.002l.713-.369.173-.715 24.863-14.504.761.17v29.884l-25.798 15.263" fill="#01579b"/><path d="M65.855 118.663V87.634l.72-.036 25.292 14.72.215.58v30.097l-26.228-14.332" fill="#0288d1"/><path d="M91.653 72.363L65.853 87.627l26.229 15.263 25.798-15.049-26.228-15.479" fill="#4fc3f7"/><path d="M158.585 133.713l-.712-.727v-29.002l.713-.369.173-.715 24.864-14.504.76.17v29.884l-25.798 15.263" fill="#01579b"/><path d="M132.356 119.373V88.344l.72-.035 25.292 14.718.216.58v30.098l-26.228-14.332" fill="#0288d1"/><path d="M158.155 73.083l-25.798 15.264 26.228 15.263 25.798-15.049-26.228-15.479" fill="#4fc3f7"/><path d="M126.476 152.623l-.713-.727v-29.003l.713-.368.173-.715 24.864-14.504.76.17v29.882l-25.798 15.264" fill="#01579b"/><path d="M100.256 138.293v-31.03l.72-.036 25.293 14.72.214.58v30.098l-26.228-14.332" fill="#0288d1"/><path d="M126.046 92.003l-25.799 15.264 26.229 15.264 25.798-15.049-26.228-15.479" fill="#4fc3f7"/></g></svg>