<svg viewBox="0 0 24 24" xmlns="http://www.w3.org/2000/svg"><g fill="#0288d1"><path class="st0" d="M10.097 15.432a3.513 3.513 0 00.914-4.883l-2.896 1.982c-.8.545-1.896.34-2.44-.46a1.76 1.76 0 01.459-2.441L8.78 7.818l1.697-1.164a3.513 3.513 0 00.915-4.883L8.496 3.76l-4.344 2.97-.005.005a5.266 5.266 0 00-1.369 7.324c1.636 2.402 4.917 3.015 7.319 1.374zM13.907 8.568c-.011.005-.017.01-.023.017l.023-.017a3.513 3.513 0 00-.914 4.882l2.896-1.981c.8-.55 1.896-.346 2.441.46.55.8.347 1.89-.454 2.441l-2.646 1.812-1.703 1.163a3.513 3.513 0 00-.914 4.883l2.895-1.981 4.344-2.975a5.271 5.271 0 001.374-7.325 5.25 5.25 0 00-7.319-1.38" stroke-width=".61"/></g></svg>