<svg stroke-miterlimit="1.414" viewBox="0 0 300 300" xmlns="http://www.w3.org/2000/svg" clip-rule="evenodd" fill-rule="evenodd" stroke-linejoin="round"><g fill-rule="nonzero" paint-order="fill markers stroke" fill="#ec407a"><path d="M257.523 22.272l-18.676 1.377v36.545l-16.613-7.12-16.613 7.12V26.098L76.881 35.59l11.061 234.02 169.59 8.117zM170.31 70.393v.002c31.663 0 49.853 17.289 48.955 52.32l-36.152.9c.674-18.863-7.413-20.66-11.904-20.66-4.266 0-11.45 1.348-11.45 11.453 0 24.926 61.528 23.578 61.528 73.88 0 28.293-22.008 41.315-50.078 41.315-28.968 0-54.343-9.88-51.424-53.22h37.951c-.449 17.515 3.37 23.806 13.025 23.806 7.41 0 10.777-4.267 10.777-11.453 0-25.6-60.629-26.5-60.629-73.434 0-26.947 17.738-44.91 49.4-44.91z"/><path d="M62.263 35.59H42.468l8.295 234.02h22.56z" fill="#ba68c8"/></g></svg>