<svg viewBox="0 0 300 300" xmlns="http://www.w3.org/2000/svg"><path d="M175.94 24.328c-13.037.252-26.009 3.872-37.471 11.174L79.912 72.818a67.134 67.134 0 00-30.355 44.906 70.794 70.794 0 006.959 45.445 67.224 67.224 0 00-10.035 25.102 71.535 71.535 0 0012.236 54.156c23.351 33.41 69.468 43.311 102.81 22.07l58.559-37.158a67.359 67.359 0 0030.355-44.906 70.771 70.771 0 00-6.982-45.422 67.65 67.65 0 0010.059-25.102 71.625 71.625 0 00-12.236-54.156v-.18c-15.324-21.925-40.453-33.727-65.342-33.246zm5.137 28.68a46.5 46.5 0 0136.09 19.969 42.975 42.975 0 017.365 32.557 45.242 45.242 0 01-1.393 5.455l-1.123 3.37-2.986-2.247a75.846 75.846 0 00-22.902-11.45l-2.244-.651.201-2.246a13.157 13.157 0 00-2.379-8.711 13.988 13.988 0 00-14.953-5.412 12.843 12.843 0 00-3.594 1.572l-58.578 37.25a12.237 12.237 0 00-5.502 8.15 13.112 13.112 0 002.246 9.834 14.033 14.033 0 0014.93 5.569 13.472 13.472 0 003.594-1.573l22.453-14.234a41.785 41.785 0 0111.898-5.232 46.477 46.477 0 0149.914 18.502 43.02 43.02 0 017.363 32.557 40.415 40.415 0 01-18.254 27.078l-58.58 37.316a43.065 43.065 0 01-11.898 5.23A46.545 46.545 0 0182.81 227.14a42.975 42.975 0 01-7.341-32.557 38.17 38.17 0 011.39-5.41l1.102-3.37 3.008 2.246a75.846 75.846 0 0022.836 11.361l2.244.65-.201 2.247a13.247 13.247 0 002.447 8.644 14.033 14.033 0 0015.043 5.569 13.135 13.135 0 003.592-1.573l58.467-37.316a12.169 12.169 0 005.502-8.173 12.955 12.955 0 00-2.246-9.811 14.033 14.033 0 00-15.043-5.568 12.843 12.843 0 00-3.592 1.57l-22.453 14.258a42.885 42.885 0 01-11.877 5.209 46.522 46.522 0 01-49.846-18.5 43.02 43.02 0 01-7.297-32.557A40.415 40.415 0 0196.798 96.98l58.646-37.316a42.773 42.773 0 0111.811-5.21 46.5 46.5 0 0113.822-1.444z" fill="#ff5722" stroke-width="2.245"/></svg>