<svg viewBox="0 0 100 100" xmlns="http://www.w3.org/2000/svg"><g fill-rule="evenodd" fill="none"><path fill="#9575cd" d="M67.702 45.717v29.622l19.224-9.85L87 76.653 53.84 93.907l-.038-41.04z"/><path fill="#f9a825" d="M30.116 66.096l-4.16-23.69L13 36.077V77.28l8.54 4.378v-24.83l4.668 26.817 7.6 3.862 4.885-22.293v24.391l8.576 4.303V52.743l-13.028-6.29z"/><path d="M45.237 6.093l-9.775 8.755s19.072 9.931 21.39 11.105c2.317 1.174 5.615 3.43 2.05 6.772-3.565 3.34-7.486 2.889-10.16 1.534a21829.587 21829.587 0 01-22.458-11.466l-10.07 8.667S35.642 41.481 38.85 43.196c3.208 1.716 15.15 5.959 26.47-2.979 11.318-8.938 9.715-12.188 9.715-12.82 0-.632-.268-3.972-2.228-6.049-1.961-2.076-7.665-5.056-10.071-6.32C60.33 13.764 45.24 6.093 45.24 6.093z" fill="#ec407a" stroke-width="1.071"/></g></svg>