<svg width="300" height="300" viewBox="0 0 140.625 140.625" xmlns="http://www.w3.org/2000/svg"><g fill="none"><g fill="#1565c0"><path d="M70.315 132.051l23.269-13.42 36.444-89.24V18.084l-27.142 15.79v9.54L81.161 90.26l-10.846 7.495zM59.449 92.319l10.866-5.365V73.32L54.027 35.326v-10.75l-.11-.065-16.175 9.363v9.538z"/></g><path d="M86.597 24.463v10.862L70.312 73.32v12.697l-10.862 6.3-21.708-48.904v-9.554l16.285-9.38L26.88 8.577l-16.286 9.507v11.643l36.654 89.018 23.064 13.303V98.615l10.847-6.3-.128-.08 21.852-48.824v-9.555l27.147-15.775-16.285-9.506L86.613 24.46z" fill="#2979ff"/></g></svg>