<svg width="64" height="64" xmlns="http://www.w3.org/2000/svg"><defs><linearGradient id="c" x1="25.058" x2="25.058" y1="47.028" y2="39.999" gradientUnits="userSpaceOnUse"><stop stop-color="#181818" stop-opacity="0" offset="0"/><stop stop-color="#181818" offset=".5"/><stop stop-color="#181818" stop-opacity="0" offset="1"/></linearGradient><linearGradient id="e" x1="24" x2="24" y1="5" y2="43" gradientTransform="matrix(1.4324 0 0 1.4363 134.03 -5.86)" gradientUnits="userSpaceOnUse"><stop stop-color="#fff" offset="0"/><stop stop-color="#fff" stop-opacity=".235" offset=".063"/><stop stop-color="#fff" stop-opacity=".157" offset=".951"/><stop stop-color="#fff" stop-opacity=".392" offset="1"/></linearGradient><linearGradient id="d" x1="31.293" x2="31.293" y1="5.008" y2="59.329" gradientTransform="translate(136.41 -3.39)" gradientUnits="userSpaceOnUse"><stop stop-color="#ad65d6" offset="0"/><stop stop-color="#7a36b1" offset="1"/></linearGradient><radialGradient id="a" cx="4.993" cy="43.5" r="2.5" gradientTransform="matrix(2.0038 0 0 1.4 27.988 -17.4)" gradientUnits="userSpaceOnUse"><stop stop-color="#181818" offset="0"/><stop stop-color="#181818" stop-opacity="0" offset="1"/></radialGradient><radialGradient id="b" cx="4.993" cy="43.5" r="2.5" gradientTransform="matrix(2.0038 0 0 1.4 -20.012 -104.4)" gradientUnits="userSpaceOnUse"><stop stop-color="#181818" offset="0"/><stop stop-color="#181818" stop-opacity="0" offset="1"/></radialGradient></defs><g opacity=".6"><path transform="matrix(1.579 0 0 .71429 130.515 24.54)" d="M38 40h5v7h-5z" fill="url(#a)"/><path transform="matrix(-1.579 0 0 -.71429 130.515 24.54)" d="M-10-47h5v7h-5z" fill="url(#b)"/><path transform="matrix(1.579 0 0 .71429 130.515 24.54)" d="M10 40h28v7H10z" fill="url(#c)"/></g><rect x="140.91" y="1.11" width="55" height="55" rx="3" ry="3" color="#000" fill="url(#d)"/><rect x="141.91" y="2.039" width="53" height="53.142" rx="2" ry="2" fill="none" opacity=".3" stroke="url(#e)" stroke-linecap="round" stroke-linejoin="round"/><rect x="140.91" y="1.11" width="55" height="55" rx="3" ry="3" color="#000" fill="none" opacity=".5" stroke="#260063" stroke-linecap="round" stroke-linejoin="round"/><path d="M167.87 12.594c-1.35 0-2.705.166-4.06.493-1.335.31-2.624.752-3.866 1.326a20.767 20.767 0 00-3.467 2.002 1.016 1.016 0 00-.005.004 17.304 17.304 0 00-2.844 2.562 1.016 1.016 0 00-.006.008 12.544 12.544 0 00-1.95 3.012 1.016 1.016 0 00-.005.011 8.348 8.348 0 00-.729 3.373c0 .912.11 1.722.373 2.434a1.016 1.016 0 00.008.021c.272.69.68 1.293 1.217 1.75a1.016 1.016 0 00.014.012c.54.444 1.188.754 1.908.947a1.016 1.016 0 00.023.006c.702.171 1.473.252 2.32.252a1.016 1.016 0 001.016-1.015c0-.376-.132-.636-.266-.85l.047.084a4.014 4.014 0 01-.148-.371c0-.001-.002 0-.002-.002a7.263 7.263 0 01-.178-.703 8.528 8.528 0 01-.072-1.236c0-2.366.542-4.247 1.588-5.75.797-1.131 1.9-1.962 3.17-2.653l.691 29.322a1.016 1.016 0 001.016.992h6.53a1.016 1.016 0 00.952-.66l12.594-33.779a1.016 1.016 0 00-.951-1.37h-3.164a1.016 1.016 0 00-.961.685l-7.649 22.25-.314-22.066a1.016 1.016 0 00-.914-.996 18.86 18.86 0 00-.934-.07h-.002a18.748 18.748 0 00-.98-.024z" color="#000" fill="#260063" opacity=".15" style="isolation:auto;mix-blend-mode:normal"/><path d="M163.66 47.609l-.73-30.967q-3.188 1.195-4.98 3.74-1.772 2.546-1.772 6.331 0 .863.089 1.417.11.531.221.863.111.31.2.487.11.177.11.31-1.173 0-2.08-.221-.908-.244-1.528-.753-.598-.508-.93-1.35-.31-.84-.31-2.08 0-1.505.641-2.966.664-1.46 1.793-2.767 1.151-1.305 2.679-2.412 1.55-1.107 3.298-1.904 1.77-.819 3.674-1.261 1.926-.466 3.83-.466.509 0 .93.022.442.022.884.066l.399 27.89 9.54-27.758h3.165l-12.594 33.78h-6.53z" color="#000" fill="#260063" opacity=".3" style="isolation:auto;mix-blend-mode:normal"/><path d="M163.66 46.609l-.73-30.967q-3.188 1.195-4.98 3.74-1.772 2.546-1.772 6.331 0 .863.089 1.417.11.531.221.863.111.31.2.487.11.177.11.31-1.173 0-2.08-.221-.908-.244-1.528-.753-.598-.508-.93-1.35-.31-.84-.31-2.08 0-1.505.641-2.966.664-1.46 1.793-2.767 1.151-1.305 2.679-2.412 1.55-1.107 3.298-1.904 1.77-.819 3.674-1.261 1.926-.466 3.83-.466.509 0 .93.022.442.022.884.066l.399 27.89 9.54-27.758h3.165l-12.594 33.78h-6.53z" fill="#fff"/><path d="M26.357 57.882l-1.111-47.15q-4.854 1.82-7.583 5.694-2.698 3.877-2.698 9.64 0 1.314.136 2.157.167.809.336 1.314.169.472.305.742.167.27.167.472-1.786 0-3.167-.336-1.383-.372-2.327-1.147-.91-.773-1.415-2.055-.473-1.28-.473-3.167 0-2.292.976-4.516 1.011-2.223 2.73-4.213 1.753-1.987 4.08-3.673 2.36-1.685 5.021-2.899 2.695-1.247 5.594-1.92 2.932-.71 5.831-.71.775 0 1.416.034.673.033 1.346.1l.608 42.465L50.654 6.45h4.819L36.298 57.883h-9.943z" fill="#9575cd" stroke-width="1.523"/></svg>