<svg viewBox="0 0 300 300" xmlns="http://www.w3.org/2000/svg"><g data-name="Layer 2"><g fill="#7c4dff" data-name="Notch - Black"><path d="M208.281 180.368l-6.955 31.288h21.65l-7.985-31.288z"/><path d="M177.552 29.65a12.57 12.57 0 010 1.297 27.598 27.598 0 01-27.598 27.599A27.576 27.576 0 01122.4 30.947a12.57 12.57 0 010-1.297H29.652v240.692h240.692V29.65zm-33.033 214.928l-11.742-57.993h-.201l-12.659 57.993H103.77l-18.295-85.211h15.946l10.915 58.015h.2l13.152-58.015h14.917l11.809 58.73h.223l12.435-58.73h15.656l-20.33 85.21zm87.805 0l-5.435-18.966h-28.694l-4.182 18.966h-15.947l20.62-85.211h25.161l25.072 85.21z"/></g></g></svg>